<?xml version="1.0" standalone="no"?>
<!DOCTYPE svg PUBLIC "-//W3C//DTD SVG 1.1//EN" "http://www.w3.org/Graphics/SVG/1.1/DTD/svg11.dtd" >
<svg xmlns="http://www.w3.org/2000/svg">
<metadata>Generated by IcoMoon</metadata>
<defs>
<font id="theme-icons" horiz-adv-x="1024">
<font-face units-per-em="1024" ascent="960" descent="-64" />
<missing-glyph horiz-adv-x="1024" />
<glyph unicode="&#x20;" horiz-adv-x="512" d="" />
<glyph unicode="&#xe900;" glyph-name="outlined-person" d="M511.998 924.038c133.429 0 241.594-108.165 241.594-241.593s-108.165-241.592-241.594-241.592c-133.428 0-241.593 108.164-241.593 241.592s108.165 241.593 241.593 241.593zM666.839 436.777c81.434 51.434 135.516 142.235 135.516 245.668 0 160.359-129.997 290.355-290.357 290.355-160.358 0-290.355-129.996-290.355-290.355 0-103.433 54.084-194.234 135.514-245.668-108.923-13.85-193.587-62.326-253.15-134.656-70.589-85.719-104.008-202.552-104.008-328.94 0-13.466 10.916-24.381 24.381-24.381s24.381 10.916 24.381 24.381c0 118.405 31.351 223.217 92.887 297.943 60.997 74.071 153.555 120.965 281.693 120.965h177.316c128.138 0 220.698-46.894 281.692-120.965 61.537-74.726 92.887-179.538 92.887-297.943 0-13.466 10.916-24.381 24.381-24.381s24.381 10.916 24.381 24.381c0 126.387-33.418 243.22-104.008 328.94-59.566 72.335-144.23 120.806-253.153 134.656z" />
<glyph unicode="&#xe901;" glyph-name="outlined-add--user" d="M686.147 822.212c101.54 0 184.602-82.946 184.602-186.182 0-103.048-82.76-185.879-184.044-186.181h-1.111c-101.284 0.302-184.043 83.133-184.043 186.181 0 103.237 83.061 186.182 184.596 186.182zM819.108 443.382c60.754 42.392 100.403 113.008 100.403 192.648 0 129.028-104.069 234.371-233.364 234.371-129.29 0-233.358-105.342-233.358-234.371 0-79.64 39.646-150.256 100.402-192.648-63.038-13.706-111.068-48.773-144.527-101.14-42.764-66.934-60.364-159.908-60.364-266.947 0-13.307 10.916-24.095 24.381-24.095s24.381 10.788 24.381 24.095c0 103.235 17.23 185.492 52.833 241.219 34.484 53.975 87.439 85.146 166.595 85.146h69.033c0.21 0 0.42 0 0.625 0 0.21 0 0.42 0 0.63 0h69.033c79.155 0 132.111-31.171 166.595-85.146 35.604-55.726 52.833-137.984 52.833-241.219 0-13.307 10.916-24.095 24.381-24.095s24.381 10.788 24.381 24.095c0 107.039-17.603 200.013-60.365 266.947-33.459 52.367-81.49 87.434-144.527 101.14zM128.87 590.034c-13.465 0-24.381-10.787-24.381-24.094v-81.049h-80.108c-13.465 0-24.381-10.787-24.381-24.092 0-13.307 10.916-24.095 24.381-24.095h80.108v-81.039c0-13.307 10.916-24.095 24.381-24.095s24.381 10.788 24.381 24.095v81.039h80.109c13.466 0 24.381 10.788 24.381 24.095 0 13.304-10.915 24.092-24.381 24.092h-80.109v81.049c0 13.307-10.915 24.094-24.381 24.094z" />
<glyph unicode="&#xe902;" glyph-name="outlined-perfil" d="M512 924.038c-255.839 0-463.238-207.399-463.238-463.238 0-126.597 50.783-241.331 133.088-324.946 11.862 94.331 46.925 166.994 99.103 217.958 34.491 33.69 75.631 57.083 120.764 71.071-55.047 36.014-91.414 98.212-91.414 168.904 0 111.394 90.302 201.697 201.697 201.697s201.697-90.303 201.697-201.697c0-70.692-36.367-132.89-91.412-168.904 45.133-13.988 86.272-37.381 120.76-71.071 52.178-50.964 87.245-123.628 99.103-217.958 82.309 83.615 133.089 198.349 133.089 324.946 0 255.839-207.396 463.238-463.237 463.238zM796.887 95.493c-5.98 103.47-39.557 176.205-87.91 223.437-50.237 49.065-119.025 73.16-196.977 73.16s-146.74-24.095-196.975-73.16c-48.354-47.232-81.934-119.967-87.911-223.437 78.576-61.363 177.461-97.93 284.886-97.93 107.423 0 206.31 36.567 284.887 97.93zM512 440.852c84.465 0 152.934 68.471 152.934 152.934s-68.47 152.935-152.934 152.935c-84.464 0-152.935-68.472-152.935-152.935s68.471-152.934 152.935-152.934zM0 460.8c0 282.77 229.23 512 512 512 282.767 0 512-229.23 512-512 0-282.767-229.233-512-512-512-282.77 0-512 229.233-512 512z" />
<glyph unicode="&#xe903;" glyph-name="outlined-calendar-range" d="M186.926 972.8c13.468 0 24.386-10.916 24.386-24.381v-73.146h113.767v73.146c0 13.465 10.918 24.381 24.386 24.381s24.386-10.916 24.386-24.381v-73.146h113.763v73.146c0 13.465 10.918 24.381 24.386 24.381s24.388-10.916 24.388-24.381v-73.146h113.766v73.146c0 13.465 10.916 24.381 24.387 24.381 13.466 0 24.381-10.916 24.381-24.381v-73.146h113.766v73.146c0 13.465 10.916 24.381 24.387 24.381 13.466 0 24.381-10.916 24.381-24.381v-73.146h138.158c13.471 0 24.387-10.916 24.387-24.381v-812.697c0-49.434-39.951-89.395-89.4-89.395h-845.199c-49.448 0-89.401 39.962-89.401 89.395v812.697c0 13.465 10.918 24.381 24.386 24.381h138.154v73.146c0 13.465 10.918 24.381 24.386 24.381zM162.54 826.511h-113.768v-178.788h926.455v178.788h-113.772v-73.139c0-13.466-10.916-24.381-24.381-24.381-13.471 0-24.387 10.915-24.387 24.381v73.139h-113.766v-73.139c0-13.466-10.916-24.381-24.381-24.381-13.471 0-24.387 10.915-24.387 24.381v73.139h-113.766v-73.139c0-13.466-10.921-24.381-24.388-24.381-13.468 0-24.386 10.915-24.386 24.381v73.139h-113.763v-73.139c0-13.466-10.918-24.381-24.386-24.381s-24.386 10.915-24.386 24.381v73.139h-113.767v-73.139c0-13.466-10.918-24.381-24.386-24.381s-24.386 10.915-24.386 24.381v73.139zM975.227 598.961h-926.455v-560.766c0-22.513 18.127-40.632 40.629-40.632h845.199c22.502 0 40.627 18.12 40.627 40.632v560.766zM162.54 493.306c0 13.465 10.918 24.381 24.386 24.381h130.028c13.468 0 24.386-10.916 24.386-24.381v-130.032c0-13.466-10.918-24.381-24.386-24.381h-130.028c-13.468 0-24.386 10.916-24.386 24.381v130.032zM211.311 468.925v-81.27h81.256v81.27h-81.256zM487.183 428.293c0 13.466 10.918 24.381 24.386 24.381h0.867c13.471 0 24.387-10.916 24.387-24.381s-10.916-24.381-24.387-24.381h-0.867c-13.468 0-24.386 10.916-24.386 24.381zM747.238 428.293c0 13.466 10.921 24.381 24.387 24.381h0.87c13.466 0 24.387-10.916 24.387-24.381s-10.921-24.381-24.387-24.381h-0.87c-13.466 0-24.387 10.916-24.387 24.381zM227.121 168.233c0 13.466 10.918 24.381 24.386 24.381h0.869c13.468 0 24.386-10.916 24.386-24.381s-10.918-24.381-24.386-24.381h-0.869c-13.468 0-24.386 10.916-24.386 24.381zM487.183 168.233c0 13.466 10.918 24.381 24.386 24.381h0.867c13.471 0 24.387-10.916 24.387-24.381s-10.916-24.381-24.387-24.381h-0.867c-13.468 0-24.386 10.916-24.386 24.381zM747.238 168.233c0 13.466 10.921 24.381 24.387 24.381h0.87c13.466 0 24.387-10.916 24.387-24.381s-10.921-24.381-24.387-24.381h-0.87c-13.466 0-24.387 10.916-24.387 24.381z" />
<glyph unicode="&#xe904;" glyph-name="outlined-add-date" d="M186.925 972.8c13.468 0 24.386-10.916 24.386-24.381v-73.146h113.772v73.146c0 13.465 10.918 24.381 24.386 24.381s24.386-10.916 24.386-24.381v-73.146h113.757v73.146c0 13.465 10.918 24.381 24.386 24.381s24.385-10.916 24.385-24.381v-73.146h113.772v73.146c0 13.465 10.921 24.381 24.387 24.381s24.387-10.916 24.387-24.381v-73.146h113.761v73.146c0 13.465 10.921 24.381 24.387 24.381s24.387-10.916 24.387-24.381v-73.146h138.153c13.471 0 24.387-10.916 24.387-24.381v-812.697c0-49.434-39.951-89.395-89.4-89.395h-845.199c-49.448 0-89.401 39.962-89.401 89.395v812.697c0 13.465 10.918 24.381 24.386 24.381h138.153v73.146c0 13.465 10.918 24.381 24.386 24.381zM162.539 826.511h-113.768v-178.788h926.455v178.788h-113.766v-73.139c0-13.466-10.921-24.381-24.387-24.381s-24.387 10.915-24.387 24.381v73.139h-113.761v-73.139c0-13.466-10.921-24.381-24.387-24.381s-24.387 10.915-24.387 24.381v73.139h-113.772v-73.139c0-13.466-10.916-24.381-24.385-24.381s-24.386 10.915-24.386 24.381v73.139h-113.757v-73.139c0-13.466-10.918-24.381-24.386-24.381s-24.386 10.915-24.386 24.381v73.139h-113.772v-73.139c0-13.466-10.918-24.381-24.386-24.381s-24.386 10.915-24.386 24.381v73.139zM975.227 598.961h-926.455v-560.766c0-22.513 18.127-40.632 40.629-40.632h845.199c22.502 0 40.627 18.12 40.627 40.632v560.766zM511.997 485.182c13.469 0 24.385-10.916 24.385-24.381v-138.154h138.163c13.466 0 24.387-10.916 24.387-24.381s-10.921-24.381-24.387-24.381h-138.163v-138.163c0-13.46-10.916-24.376-24.385-24.376s-24.386 10.916-24.386 24.376v138.163h-138.143c-13.468 0-24.386 10.916-24.386 24.381s10.918 24.381 24.386 24.381h138.143v138.154c0 13.465 10.918 24.381 24.386 24.381z" />
<glyph unicode="&#xe905;" glyph-name="outlined-ok-date" d="M186.925 972.8c13.468 0 24.386-10.916 24.386-24.381v-73.146h113.767v73.146c0 13.465 10.918 24.381 24.386 24.381s24.386-10.916 24.386-24.381v-73.146h113.762v73.146c0 13.465 10.918 24.381 24.386 24.381s24.383-10.916 24.383-24.381v-73.146h113.777v73.146c0 13.465 10.916 24.381 24.381 24.381 13.471 0 24.387-10.916 24.387-24.381v-73.146h113.766v73.146c0 13.465 10.916 24.381 24.387 24.381 13.466 0 24.381-10.916 24.381-24.381v-73.146h138.153c13.471 0 24.387-10.916 24.387-24.381v-812.697c0-49.434-39.951-89.395-89.4-89.395h-845.199c-49.448 0-89.401 39.962-89.401 89.395v812.697c0 13.465 10.918 24.381 24.386 24.381h138.153v73.146c0 13.465 10.918 24.381 24.386 24.381zM162.539 826.511h-113.767v-178.788h926.455v178.788h-113.766v-73.139c0-13.466-10.916-24.381-24.381-24.381-13.471 0-24.387 10.915-24.387 24.381v73.139h-113.766v-73.139c0-13.466-10.916-24.381-24.387-24.381-13.466 0-24.381 10.915-24.381 24.381v73.139h-113.777v-73.139c0-13.466-10.916-24.381-24.383-24.381s-24.386 10.915-24.386 24.381v73.139h-113.762v-73.139c0-13.466-10.918-24.381-24.386-24.381s-24.386 10.915-24.386 24.381v73.139h-113.767v-73.139c0-13.466-10.918-24.381-24.386-24.381s-24.386 10.915-24.386 24.381v73.139zM975.227 598.961h-926.455v-560.766c0-22.513 18.127-40.632 40.629-40.632h845.199c22.502 0 40.627 18.12 40.627 40.632v560.766zM691.784 413.025c9.528-9.523 9.528-24.96 0.005-34.478l-195.048-195.046c-4.573-4.577-10.777-7.142-17.245-7.142s-12.672 2.565-17.245 7.142l-130.032 130.028c-9.522 9.523-9.521 24.96 0.003 34.483 9.524 9.518 24.965 9.518 34.487-0.005l112.787-112.788 177.805 177.802c9.523 9.523 24.96 9.523 34.483 0.005z" />
<glyph unicode="&#xe906;" glyph-name="outlined-hotel-building" d="M278.64 948.419c0 13.465 10.916 24.381 24.381 24.381h696.598c13.466 0 24.381-10.916 24.381-24.381v-975.238c0-13.466-10.916-24.381-24.381-24.381s-24.381 10.916-24.381 24.381v950.857h-647.835v-950.857c0-13.466-10.916-24.381-24.381-24.381s-24.381 10.916-24.381 24.381v755.809h-229.878v-755.809c0-13.466-10.916-24.381-24.381-24.381s-24.381 10.916-24.381 24.381v780.19c0 13.465 10.916 24.381 24.381 24.381h254.259v170.666zM417.959 818.39c0 13.465 10.916 24.381 24.381 24.381h139.317c13.466 0 24.381-10.916 24.381-24.381v-130.032c0-13.465-10.916-24.381-24.381-24.381h-139.317c-13.465 0-24.381 10.916-24.381 24.381v130.032zM466.721 794.009v-81.27h90.56v81.27h-90.56zM696.602 818.39c0 13.465 10.916 24.381 24.376 24.381h139.32c13.466 0 24.381-10.916 24.381-24.381v-130.032c0-13.465-10.916-24.381-24.381-24.381h-139.32c-13.46 0-24.376 10.916-24.376 24.381v130.032zM745.359 794.009v-81.27h90.557v81.27h-90.557zM163.7 647.722c13.465 0 24.381-10.916 24.381-24.381v-65.016c0-13.465-10.916-24.381-24.381-24.381s-24.381 10.916-24.381 24.381v65.016c0 13.465 10.916 24.381 24.381 24.381zM417.959 558.324c0 13.465 10.916 24.381 24.381 24.381h139.317c13.466 0 24.381-10.916 24.381-24.381v-130.031c0-13.466-10.916-24.381-24.381-24.381h-139.317c-13.465 0-24.381 10.916-24.381 24.381v130.031zM466.721 533.943v-81.268h90.56v81.268h-90.56zM696.602 558.324c0 13.465 10.916 24.381 24.376 24.381h139.32c13.466 0 24.381-10.916 24.381-24.381v-130.031c0-13.466-10.916-24.381-24.381-24.381h-139.32c-13.46 0-24.376 10.916-24.376 24.381v130.031zM745.359 533.943v-81.268h90.557v81.268h-90.557zM163.7 452.675c13.465 0 24.381-10.916 24.381-24.381v-65.014c0-13.466-10.916-24.381-24.381-24.381s-24.381 10.916-24.381 24.381v65.014c0 13.466 10.916 24.381 24.381 24.381zM417.959 298.26c0 13.466 10.916 24.376 24.381 24.376h139.317c13.466 0 24.381-10.911 24.381-24.376v-130.033c0-13.466-10.916-24.381-24.381-24.381h-139.317c-13.465 0-24.381 10.916-24.381 24.381v130.033zM466.721 273.879v-81.27h90.56v81.27h-90.56zM696.602 298.26c0 13.466 10.916 24.376 24.376 24.376h139.32c13.466 0 24.381-10.911 24.381-24.376v-130.033c0-13.466-10.916-24.381-24.381-24.381h-139.32c-13.46 0-24.376 10.916-24.376 24.381v130.033zM745.359 273.879v-81.27h90.557v81.27h-90.557zM163.7 257.628c13.465 0 24.381-10.916 24.381-24.381v-65.014c0-13.466-10.916-24.381-24.381-24.381s-24.381 10.916-24.381 24.381v65.014c0 13.466 10.916 24.381 24.381 24.381z" />
<glyph unicode="&#xe907;" glyph-name="outlined-pool" d="M455.111 786.149c0 46.588 39.951 84.251 89.396 84.251 13.466 0 24.381-10.286 24.381-22.973s-10.916-22.974-24.381-22.974c-22.502 0-40.634-17.081-40.634-38.304v-38.304h211.304v38.304c0 46.588 39.951 84.251 89.395 84.251 13.466 0 24.381-10.286 24.381-22.973s-10.916-22.974-24.381-22.974c-22.502 0-40.632-17.081-40.632-38.304v-413.351c2.34-1.72 4.613-3.43 6.83-5.1l0.246-0.184c19.497-14.659 34.263-25.62 66.063-25.62 16.712 0 28.288 3.098 37.56 7.306 9.805 4.444 17.9 10.445 28.314 18.299l0.604 0.451c9.82 7.409 21.862 16.486 37.151 23.393 16.118 7.276 35.011 11.827 58.911 11.827 13.466 0 24.381-10.286 24.381-22.973s-10.916-22.973-24.381-22.973c-16.845 0-28.508-3.108-37.842-7.322-9.846-4.444-17.966-10.445-28.36-18.278l-0.732-0.558c-9.769-7.368-21.745-16.399-36.905-23.27-16.067-7.286-34.888-11.848-58.701-11.848-49.065 0-75.028 19.528-96.23 35.471l-0.246 0.184c-4.301 3.236-8.376 6.287-12.447 9.083-1.766 0.886-3.4 1.961-4.874 3.205-12.897 8.090-26.747 13.332-48.742 13.332-31.8 0-46.566-10.962-66.063-25.62l-0.246-0.184c-21.202-15.944-47.165-35.471-96.23-35.471-49.064 0-75.028 19.528-96.232 35.471l-0.246 0.184c-19.494 14.659-34.263 25.62-66.062 25.62s-46.568-10.962-66.062-25.62l-0.246-0.184c-21.203-15.944-47.167-35.471-96.232-35.471s-75.028 19.528-96.232 35.471l-0.246 0.184c-19.494 14.659-34.263 25.62-66.062 25.62-13.465 0-24.381 10.286-24.381 22.973s10.916 22.973 24.381 22.973c49.064 0 75.028-19.523 96.232-35.471l0.246-0.184c19.494-14.659 34.263-25.62 66.062-25.62s46.568 10.962 66.062 25.62l0.245 0.184c21.204 15.949 47.168 35.471 96.232 35.471s75.028-19.523 96.232-35.471l0.246-0.184c3.15-2.365 6.177-4.639 9.172-6.784v425.419zM503.873 701.897v-76.6h211.304v76.6h-211.304zM715.177 579.35h-211.304v-237.2c2.584-0.169 5.287-0.256 8.127-0.256 31.8 0 46.566 10.962 66.063 25.62l0.246 0.184c21.202 15.949 47.165 35.471 96.23 35.471 15.713 0 29.061-2.002 40.637-5.248v181.428zM0 257.649c0 12.687 10.916 22.973 24.381 22.973 49.064 0 75.028-19.528 96.232-35.471l0.245-0.184c19.494-14.659 34.263-25.62 66.062-25.62s46.568 10.962 66.062 25.62l0.245 0.184c21.204 15.944 47.168 35.471 96.232 35.471s75.028-19.528 96.232-35.471l0.246-0.184c19.494-14.659 34.263-25.62 66.062-25.62s46.566 10.962 66.063 25.62l0.246 0.184c21.202 15.944 47.165 35.471 96.23 35.471s75.028-19.528 96.23-35.471l0.246-0.184c19.497-14.659 34.263-25.62 66.063-25.62 16.712 0 28.288 3.098 37.56 7.301 9.805 4.444 17.9 10.445 28.314 18.299l0.604 0.456c9.815 7.404 21.857 16.486 37.151 23.388 16.118 7.281 35.011 11.832 58.911 11.832 13.466 0 24.381-10.286 24.381-22.973s-10.916-22.973-24.381-22.973c-16.845 0-28.508-3.108-37.842-7.322-9.846-4.444-17.966-10.45-28.36-18.284l-0.732-0.553c-9.769-7.368-21.745-16.399-36.905-23.276-16.067-7.281-34.888-11.843-58.701-11.843-49.065 0-75.028 19.523-96.23 35.471l-0.246 0.184c-19.497 14.659-34.263 25.62-66.063 25.62s-46.566-10.962-66.063-25.62l-0.246-0.184c-21.202-15.949-47.165-35.471-96.23-35.471-49.064 0-75.028 19.523-96.232 35.471l-0.246 0.184c-19.494 14.659-34.263 25.62-66.062 25.62s-46.568-10.962-66.062-25.62l-0.246-0.184c-21.204-15.949-47.168-35.471-96.232-35.471s-75.028 19.523-96.232 35.471l-0.246 0.184c-19.494 14.659-34.263 25.62-66.062 25.62-13.465 0-24.381 10.286-24.381 22.973zM0 135.45c0 12.687 10.916 22.973 24.381 22.973 49.064 0 75.028-19.523 96.232-35.471l0.245-0.184c19.494-14.659 34.263-25.62 66.062-25.62s46.568 10.962 66.062 25.62l0.245 0.184c21.204 15.949 47.168 35.471 96.232 35.471s75.028-19.523 96.232-35.471l0.246-0.184c19.494-14.659 34.263-25.62 66.062-25.62s46.566 10.962 66.063 25.62l0.246 0.184c21.202 15.949 47.165 35.471 96.23 35.471s75.028-19.523 96.23-35.471l0.246-0.184c19.497-14.659 34.263-25.62 66.063-25.62 16.712 0 28.288 3.098 37.56 7.301 9.805 4.444 17.9 10.45 28.314 18.304l0.604 0.451c9.815 7.404 21.857 16.486 37.151 23.393 16.118 7.276 35.011 11.827 58.911 11.827 13.466 0 24.381-10.286 24.381-22.973s-10.916-22.973-24.381-22.973c-16.845 0-28.508-3.108-37.842-7.322-9.846-4.444-17.966-10.445-28.36-18.278l-0.732-0.558c-9.769-7.368-21.745-16.399-36.905-23.27-16.067-7.286-34.888-11.848-58.701-11.848-49.065 0-75.028 19.528-96.23 35.471l-0.246 0.184c-19.497 14.659-34.263 25.62-66.063 25.62s-46.566-10.962-66.063-25.62l-0.246-0.184c-21.202-15.944-47.165-35.471-96.23-35.471-49.064 0-75.028 19.528-96.232 35.471l-0.246 0.184c-19.494 14.659-34.263 25.62-66.062 25.62s-46.568-10.962-66.062-25.62l-0.246-0.184c-21.204-15.944-47.168-35.471-96.232-35.471s-75.028 19.528-96.232 35.471l-0.246 0.184c-19.494 14.659-34.263 25.62-66.062 25.62-13.465 0-24.381 10.286-24.381 22.973zM500.62 503.874h219.897v-45.936h-219.897v45.936zM500.62 388.634h111.010v-52.516h-111.010v52.516z" />
<glyph unicode="&#xe908;" glyph-name="outlined-gym" d="M130.034 744.374c0 13.048 10.916 23.626 24.381 23.626h130.030c13.465 0 24.381-10.578 24.381-23.626v-196.931h406.346v196.931c0 13.048 10.916 23.626 24.381 23.626h130.033c13.466 0 24.381-10.578 24.381-23.626v-70.898h105.651c13.466 0 24.381-10.578 24.381-23.626v-378.101c0-13.046-10.916-23.624-24.381-23.624h-105.651v-70.897c0-13.051-10.916-23.629-24.381-23.629h-130.033c-13.466 0-24.381 10.578-24.381 23.629v196.931h-406.346v-196.931c0-13.051-10.916-23.629-24.381-23.629h-130.030c-13.465 0-24.381 10.578-24.381 23.629v70.897h-105.653c-13.465 0-24.381 10.578-24.381 23.624v378.101c0 13.048 10.916 23.626 24.381 23.626h105.653v70.898zM130.034 626.224h-81.272v-330.846h81.272v330.846zM308.826 421.412h406.346v78.779h-406.346v-78.779zM260.064 200.852v519.895h-81.268v-519.895h81.268zM893.967 295.378h81.27v330.846h-81.27v-330.846zM845.204 200.852v519.895h-81.27v-519.895h81.27z" />
<glyph unicode="&#xe909;" glyph-name="outlined-wired-tv" d="M89.401 924.038h845.198c22.502 0 40.627-18.12 40.627-40.635v-520.124c0-22.518-18.125-40.637-40.627-40.637h-64.707c-0.102 0.005-0.205 0.005-0.312 0.005-0.102 0-0.205 0-0.312-0.005h-365.392v300.695c0 49.436-39.953 89.396-89.401 89.396h-195.046c-49.448 0-89.401-39.961-89.401-89.396v-300.695h-40.627c-22.502 0-40.63 18.12-40.63 40.637v520.124c0 22.515 18.127 40.635 40.63 40.635zM893.967 273.884h40.632c49.449 0 89.4 39.956 89.4 89.395v520.124c0 49.436-39.951 89.397-89.4 89.397h-845.198c-49.448 0-89.401-39.961-89.401-89.397v-520.124c0-49.439 39.953-89.395 89.401-89.395h40.627v-235.689c0-49.434 39.953-89.395 89.401-89.395h195.046c49.447 0 89.401 39.962 89.401 89.395v235.689h341.318v-40.637c0-13.466 10.921-24.381 24.387-24.381 13.471 0 24.387 10.916 24.387 24.381v40.637zM178.801 297.958c0.001 0.102 0.002 0.205 0.002 0.302 0 0.102-0.001 0.205-0.002 0.307v324.769c0 22.515 18.127 40.634 40.629 40.634h195.046c22.502 0 40.629-18.12 40.629-40.634v-585.141c0-22.513-18.127-40.632-40.629-40.632h-195.046c-22.502 0-40.629 18.12-40.629 40.632v259.763zM879.775 840.538c12.237-5.626 17.592-20.104 11.965-32.338l-59.812-130.034c-3.983-8.651-12.636-14.194-22.159-14.194h-9.969c-9.498 0-18.135 5.515-22.124 14.133l-60.247 130.033c-5.663 12.218-0.348 26.711 11.873 32.371s26.716 0.344 32.379-11.875l43.044-92.9 42.706 92.839c5.627 12.234 20.106 17.59 32.343 11.964zM536.591 818.387c0 13.465 10.921 24.381 24.387 24.381h97.526c13.466 0 24.387-10.916 24.387-24.381s-10.921-24.381-24.387-24.381h-24.596v-105.653c0-13.465-10.921-24.381-24.387-24.381s-24.387 10.916-24.387 24.381v105.653h-24.156c-13.466 0-24.387 10.916-24.387 24.381zM243.591 558.324c0 13.465 10.918 24.381 24.386 24.381h0.869c13.468 0 24.386-10.916 24.386-24.381s-10.918-24.381-24.386-24.381h-0.869c-13.468 0-24.386 10.915-24.386 24.381zM341.114 558.324c0 13.465 10.918 24.381 24.386 24.381h0.869c13.468 0 24.386-10.916 24.386-24.381s-10.918-24.381-24.386-24.381h-0.869c-13.468 0-24.386 10.915-24.386 24.381zM243.591 460.805c0 13.466 10.918 24.381 24.386 24.381h0.869c13.468 0 24.386-10.915 24.386-24.381s-10.918-24.381-24.386-24.381h-0.869c-13.468 0-24.386 10.916-24.386 24.381zM341.114 460.805c0 13.466 10.918 24.381 24.386 24.381h0.869c13.468 0 24.386-10.915 24.386-24.381s-10.918-24.381-24.386-24.381h-0.869c-13.468 0-24.386 10.916-24.386 24.381zM243.591 363.284c0 13.466 10.918 24.381 24.386 24.381h0.869c13.468 0 24.386-10.916 24.386-24.381s-10.918-24.381-24.386-24.381h-0.869c-13.468 0-24.386 10.916-24.386 24.381zM341.114 363.284c0 13.466 10.918 24.381 24.386 24.381h0.869c13.468 0 24.386-10.916 24.386-24.381s-10.918-24.381-24.386-24.381h-0.869c-13.468 0-24.386 10.916-24.386 24.381zM316.952 208.865c-22.434 0-40.629-18.186-40.629-40.632s18.195-40.632 40.629-40.632c22.434 0 40.629 18.186 40.629 40.632s-18.195 40.632-40.629 40.632zM227.551 168.233c0 49.367 40.022 89.395 89.401 89.395s89.401-40.028 89.401-89.395c0-49.367-40.022-89.395-89.401-89.395s-89.401 40.028-89.401 89.395z" />
<glyph unicode="&#xe90a;" glyph-name="outlined-hair-dryer" d="M10.239 917.103c6.424 4.551 14.665 5.729 22.118 3.162l189.796-65.359 579.624 66.534c0.927 0.106 1.859 0.16 2.796 0.16 122.25 0 219.428-101.726 219.428-225.738 0-115.645-84.511-211.908-195.052-224.371v-380.078c0-49.684-39.096-91.412-89.395-91.412h-65.014c-12.36 0-22.758 9.196-24.212 21.402l-25.431 213.658h-11.904c-13.466 0-24.381 10.854-24.381 24.248s10.916 24.253 24.381 24.253h6.129l-6.216 52.239h-10.752c-13.466 0-24.381 10.86-24.381 24.253s10.916 24.253 24.381 24.253h4.977l-13.071 109.818-371.906 42.684-189.797-65.352c-7.453-2.566-15.693-1.388-22.117 3.163s-10.239 11.911-10.239 19.756v402.971c0 7.845 3.815 15.206 10.239 19.756zM243.809 583.151l562.115-64.514c92.989 0.751 169.313 78.738 169.313 177.225s-76.324 176.477-169.313 177.227l-562.115-64.524v-225.414zM195.047 812.911l-146.285 50.376v-334.851l146.285 50.37v234.106zM780.191 472.763l-136.346 15.648 14.679-123.351c0.292-1.388 0.466-2.816 0.512-4.28l37.166-312.274h43.351c21.652 0 40.637 18.268 40.637 42.906v381.351z" />
<glyph unicode="&#xe90b;" glyph-name="outlined-shampoo-toothbrush" d="M233.302 948.419v-170.665h-41.448c-11.699 0-21.693-8.569-23.658-20.284-5.977-35.62-11.972-68.005-17.779-99.37-25.883-139.81-48.016-259.364-48.016-554.885v-130.033c0-13.466 10.745-24.381 24-24.381h458.181c13.256 0 23.997 10.916 23.997 24.381v130.033c0 295.521-22.134 415.075-48.015 554.885-5.806 31.365-11.802 63.75-17.777 99.37-1.966 11.715-11.96 20.284-23.66 20.284h-41.46v170.665c0 13.465-10.745 24.381-24 24.381h-196.365c-13.255 0-24-10.916-24-24.381zM257.032 728.992l0.27-0.002 0.27 0.002h241.356c4.898-28.253 9.758-54.51 14.475-79.991 25.723-138.956 47.176-254.863 47.176-545.787v-105.651h-410.179v105.651c0 290.924 21.456 406.831 47.177 545.787 4.717 25.482 9.577 51.738 14.475 79.991h44.98zM429.667 777.754h-148.365v146.284h148.365v-146.284zM742.697 948.419c0 13.465 10.747 24.381 23.997 24.381h130.903c13.256 0 24.003-10.916 24.003-24.381v-260.063c0-13.466-10.747-24.381-24.003-24.381h-106.9v-40.635c0-61.412 15.468-123.405 31.974-189.010l0.379-1.485c16.102-63.99 33.096-131.507 33.096-199.598v-260.065c0-13.466-10.747-24.381-23.997-24.381-13.256 0-24.003 10.916-24.003 24.381v260.065c0 61.409-15.468 123.402-31.974 189.005l-0.379 1.49c-16.102 63.987-33.096 131.507-33.096 199.598v325.080zM790.697 712.737h82.903v211.301h-82.903v-211.301z" />
<glyph unicode="&#xe90c;" glyph-name="outlined-heater" d="M267.473 965.921c-9.669-9.374-9.905-24.81-0.529-34.476 5.311-5.476 5.562-8.966 5.122-12.6-0.731-6.024-3.854-13.043-9.558-24.804-0.211-0.435-0.428-0.88-0.648-1.333-4.797-9.867-11.629-23.918-13.443-38.878-2.187-18.038 2.818-36.219 18.527-52.415 9.376-9.667 24.815-9.903 34.483-0.529s9.905 24.809 0.529 34.476c-5.312 5.476-5.562 8.966-5.122 12.6 0.73 6.024 3.854 13.043 9.558 24.804 0.211 0.435 0.428 0.88 0.648 1.334 4.797 9.867 11.629 23.918 13.443 38.877 2.187 18.038-2.818 36.22-18.527 52.415-9.376 9.666-24.815 9.903-34.483 0.529zM397.501 965.921c-9.668-9.374-9.905-24.81-0.528-34.476 5.312-5.476 5.562-8.966 5.122-12.599-0.731-6.024-3.854-13.043-9.559-24.804-0.211-0.436-0.428-0.88-0.648-1.334-4.797-9.867-11.629-23.918-13.443-38.878-2.187-18.038 2.818-36.22 18.528-52.415 9.376-9.666 24.815-9.903 34.483-0.528s9.904 24.809 0.528 34.476c-5.312 5.476-5.562 8.966-5.122 12.6 0.73 6.024 3.854 13.043 9.559 24.803 0.211 0.436 0.428 0.881 0.648 1.334 4.798 9.867 11.63 23.918 13.444 38.877 2.187 18.038-2.818 36.22-18.528 52.416-9.376 9.666-24.815 9.902-34.483 0.528zM527.529 965.921c-9.667-9.375-9.902-24.81-0.527-34.476 5.315-5.476 5.565-8.966 5.125-12.599-0.732-6.024-3.855-13.043-9.559-24.803-0.215-0.436-0.43-0.881-0.65-1.334-4.797-9.867-11.63-23.918-13.444-38.877-2.187-18.039 2.819-36.221 18.528-52.417 9.38-9.666 24.817-9.902 34.483-0.527s9.907 24.81 0.527 34.476c-5.309 5.476-5.56 8.966-5.12 12.599 0.727 6.024 3.855 13.043 9.559 24.804 0.21 0.435 0.425 0.88 0.645 1.334 4.797 9.867 11.633 23.918 13.445 38.878 2.186 18.038-2.816 36.221-18.529 52.416-9.375 9.666-24.817 9.902-34.483 0.527zM0 688.355c0 13.465 10.918 24.381 24.386 24.381h780.181c13.471 0 24.387-10.916 24.387-24.381v-560.755h32.712v40.637c0 7.076 3.077 13.804 8.433 18.432 5.35 4.634 12.452 6.712 19.456 5.693l113.562-16.471c11.991-1.736 20.884-12.012 20.884-24.125v-97.526c0-12.145-8.945-22.441-20.977-24.141l-113.562-16.036c-6.989-0.988-14.070 1.101-19.4 5.734-5.335 4.628-8.397 11.346-8.397 18.406v40.632h-32.712v-105.656c0-13.466-10.916-24.381-24.387-24.381h-780.181c-13.468 0-24.386 10.916-24.386 24.381v715.174zM48.772 533.946v-536.383h146.274v536.383h-146.274zM195.045 582.708v81.266h-146.274v-81.266h146.274zM243.817 533.946v-536.383h146.278v536.383h-146.278zM390.095 582.708v81.266h-146.278v-81.266h146.278zM438.866 533.946v-536.383h146.268v536.383h-146.268zM585.134 582.708v81.266h-146.268v-81.266h146.268zM633.907 533.946v-536.383h146.278v536.383h-146.278zM780.186 582.708v81.266h-146.278v-81.266h146.278zM910.438 102.856v-36.582l64.788 9.149v55.245l-64.788 9.395v-36.485c0.005-0.118 0.005-0.241 0.005-0.358 0-0.123 0-0.241-0.005-0.364z" />
<glyph unicode="&#xe90d;" glyph-name="outlined-air-conditioner" d="M511.776 972.8c13.464 0 24.38-10.916 24.38-24.381v-146.055l127.964 122.901c9.713 9.327 25.144 9.016 34.473-0.696 9.324-9.712 9.016-25.146-0.696-34.473l-161.741-155.342v-232.9l211.599 117.308 59.141 212.275c3.61 12.972 17.055 20.557 30.029 16.944 12.969-3.614 20.557-17.059 16.942-30.030l-46.249-166.001 132.342 73.367c11.776 6.529 26.614 2.275 33.142-9.502s2.273-26.616-9.503-33.144l-129.475-71.779 171.556-44.092c13.041-3.352 20.9-16.642 17.546-29.683s-16.64-20.896-29.681-17.545l-221.466 56.921-209.797-116.309 209.265-116.009 221.998 57.062c13.041 3.354 26.327-4.5 29.681-17.541s-4.5-26.332-17.546-29.686l-172.088-44.232 130.007-72.079c11.776-6.528 16.031-21.366 9.503-33.142s-21.366-16.031-33.142-9.503l-132.234 73.308 46.147-165.955c3.604-12.974-3.988-26.414-16.963-30.024-12.969-3.604-26.414 3.988-30.019 16.963l-58.998 212.188-211.738 117.381v-232.883l161.715-154.911c9.728-9.313 10.056-24.745 0.742-34.468-9.313-9.728-24.745-10.056-34.473-0.742l-127.985 122.598v-145.731c0-13.466-10.916-24.381-24.38-24.381-13.465 0-24.38 10.916-24.38 24.381v145.731l-127.988-122.598c-9.724-9.313-25.157-8.986-34.471 0.742-9.314 9.723-8.982 25.155 0.741 34.468l161.718 154.911v232.632l-211.291-117.135-58.996-212.183c-3.607-12.974-17.048-20.567-30.021-16.963-12.973 3.61-20.566 17.050-16.958 30.024l46.141 165.949-132.226-73.303c-11.776-6.528-26.615-2.273-33.144 9.503s-2.274 26.614 9.502 33.142l130.013 72.079-172.097 44.227c-13.041 3.354-20.896 16.64-17.545 29.686 3.352 13.041 16.641 20.895 29.682 17.541l222.011-57.052 209.252 116.004-209.784 116.304-221.479-56.918c-13.041-3.352-26.33 4.504-29.682 17.545s4.504 26.331 17.545 29.682l171.565 44.091-129.481 71.783c-11.776 6.529-16.031 21.368-9.502 33.144s21.368 16.031 33.144 9.502l132.332-73.363-46.244 165.997c-3.614 12.972 3.972 26.416 16.944 30.030s26.416-3.973 30.029-16.944l59.135-212.271 211.155-117.062v232.648l-161.741 155.343c-9.712 9.327-10.023 24.761-0.696 34.473s24.761 10.023 34.472 0.696l127.965-122.903v146.057c0 13.465 10.915 24.381 24.38 24.381z" />
<glyph unicode="&#xe90e;" glyph-name="outlined-sun" d="M511.996 972.8c13.469 0 24.385-10.916 24.385-24.381v-130.030c0-13.466-10.916-24.381-24.385-24.381s-24.386 10.915-24.386 24.381v130.030c0 13.465 10.918 24.381 24.386 24.381zM150.181 822.627c9.524 9.521 24.964 9.519 34.486-0.004l91.889-91.89c9.522-9.523 9.521-24.96-0.004-34.48s-24.965-9.519-34.487 0.004l-91.889 91.891c-9.522 9.522-9.52 24.959 0.004 34.48zM874.255 822.627c9.523-9.52 9.528-24.957 0.005-34.48l-91.889-91.89c-9.523-9.523-24.965-9.524-34.488-0.004s-9.523 24.958-0.005 34.48l91.894 91.89c9.518 9.523 24.96 9.524 34.483 0.004zM512.005 663.973c-112.202 0-203.168-90.96-203.168-203.178 0-112.215 90.966-203.172 203.168-203.172 112.2 0 203.167 90.957 203.167 203.172 0 112.218-90.967 203.178-203.167 203.178zM260.066 460.795c0 139.139 112.792 251.94 251.939 251.94 139.146 0 251.935-112.801 251.935-251.94 0-139.136-112.788-251.935-251.935-251.935-139.148 0-251.939 112.799-251.939 251.935zM0 460.8c0 13.463 10.918 24.379 24.386 24.379h130.032c13.468 0 24.386-10.916 24.386-24.379 0-13.466-10.918-24.381-24.386-24.381h-130.032c-13.468 0-24.386 10.916-24.386 24.381zM845.199 460.8c0 13.463 10.916 24.379 24.387 24.379h130.028c13.471 0 24.387-10.916 24.387-24.379 0-13.466-10.916-24.381-24.387-24.381h-130.028c-13.471 0-24.387 10.916-24.387 24.381zM276.553 224.911c9.524-9.523 9.525-24.96 0.003-34.478l-91.889-91.889c-9.522-9.523-24.963-9.523-34.486 0-9.524 9.518-9.525 24.955-0.003 34.478l91.889 91.884c9.523 9.523 24.963 9.523 34.487 0.005zM747.884 224.911c9.523 9.518 24.965 9.518 34.488-0.005l91.889-91.884c9.523-9.523 9.518-24.96-0.005-34.478-9.523-9.523-24.96-9.523-34.483 0l-91.894 91.889c-9.518 9.518-9.518 24.955 0.005 34.478zM511.996 127.596c13.469 0 24.385-10.916 24.385-24.381v-130.033c0-13.466-10.916-24.381-24.385-24.381s-24.386 10.916-24.386 24.381v130.033c0 13.466 10.918 24.381 24.386 24.381z" />
<glyph unicode="&#xe90f;" glyph-name="outlined-sound-proof" d="M948.547 972.8c13.394 0 24.253-10.916 24.253-24.381v-975.238c0-13.466-10.86-24.381-24.253-24.381s-24.253 10.916-24.253 24.381v975.238c0 13.465 10.86 24.381 24.253 24.381zM422.885 742.26c7.783-4.275 12.624-12.48 12.624-21.396v-520.129c0-8.914-4.841-17.121-12.624-21.396s-17.267-3.937-24.73 0.881l-195.496 126.167h-127.207c-13.394 0-24.252 10.916-24.252 24.381v260.064c0 13.465 10.858 24.381 24.252 24.381h127.207l195.496 126.168c7.463 4.817 16.947 5.154 24.73 0.879zM387.004 676.239l-164.128-105.924c-3.909-2.523-8.457-3.864-13.102-3.864h-110.069v-211.302h110.069c4.645 0 9.193-1.341 13.102-3.866l164.128-105.923v430.878zM693.883 721.42c9.354 9.638 24.709 9.83 34.299 0.428 147.21-144.367 147.21-378.152 0-522.521-9.59-9.405-24.945-9.211-34.299 0.425-9.354 9.641-9.16 25.078 0.425 34.478 127.703 125.23 127.703 327.482 0 452.713-9.585 9.403-9.779 24.839-0.425 34.478zM611.067 640.387c9.359 9.631 24.714 9.81 34.294 0.4 101.079-99.288 101.079-260.673 0-359.96-9.58-9.411-24.934-9.231-34.294 0.399-9.364 9.636-9.185 25.068 0.394 34.478 81.608 80.159 81.608 210.047 0 290.205-9.58 9.411-9.759 24.846-0.394 34.478zM528.276 558.929c9.385 9.608 24.74 9.749 34.299 0.315 55.347-54.633 55.347-142.696 0-197.332-9.559-9.431-24.914-9.293-34.299 0.317-9.38 9.605-9.242 25.042 0.317 34.478 35.983 35.517 35.983 92.222 0 127.743-9.559 9.434-9.697 24.871-0.317 34.479z" />
<glyph unicode="&#xe910;" glyph-name="outlined-microwave" d="M0 846.4c0 13.255 10.916 24 24.381 24h975.238c13.466 0 24.381-10.745 24.381-24v-705.743c0-13.256-10.916-23.997-24.381-23.997h-40.632v-41.462c0-13.251-10.916-23.997-24.381-23.997s-24.381 10.747-24.381 23.997v41.462h-235.208c-0.159-0.005-0.317-0.005-0.476-0.005s-0.317 0-0.476 0.005h-560.284v-41.462c0-13.251-10.916-23.997-24.381-23.997s-24.381 10.747-24.381 23.997v41.462h-40.636c-13.465 0-24.381 10.742-24.381 23.997v705.743zM650.158 164.659v657.741h-601.396v-657.741h601.396zM698.921 822.4v-657.741h276.316v657.741h-276.316zM764.15 715.489c0 13.255 10.916 24 24.381 24h97.526c13.466 0 24.381-10.745 24.381-24s-10.916-24-24.381-24h-97.526c-13.466 0-24.381 10.745-24.381 24zM154.415 674.040c13.465 0 24.381-10.745 24.381-24v-261.816c0-13.256-10.916-24.003-24.381-24.003s-24.381 10.747-24.381 24.003v261.816c0 13.255 10.916 24 24.381 24zM763.72 617.303c0 13.255 10.916 24 24.381 24h0.461c13.466 0 24.381-10.745 24.381-24s-10.916-24-24.381-24h-0.461c-13.466 0-24.381 10.745-24.381 24zM861.245 617.303c0 13.255 10.916 24 24.381 24h0.461c13.466 0 24.381-10.745 24.381-24s-10.916-24-24.381-24h-0.461c-13.466 0-24.381 10.745-24.381 24zM763.72 519.117c0 13.255 10.916 24 24.381 24h0.461c13.466 0 24.381-10.745 24.381-24s-10.916-24-24.381-24h-0.461c-13.466 0-24.381 10.745-24.381 24zM861.245 519.117c0 13.255 10.916 24 24.381 24h0.461c13.466 0 24.381-10.745 24.381-24s-10.916-24-24.381-24h-0.461c-13.466 0-24.381 10.745-24.381 24zM837.079 396.498c-12.836 0-24.166-10.624-24.166-24.873 0-14.244 11.331-24.873 24.166-24.873 12.831 0 24.166 10.629 24.166 24.873 0 14.249-11.336 24.873-24.166 24.873zM764.15 371.625c0 39.736 32.138 72.873 72.929 72.873s72.924-33.137 72.924-72.873c0-39.736-32.133-72.873-72.924-72.873s-72.929 33.137-72.929 72.873z" />
<glyph unicode="&#xe911;" glyph-name="outlined-coffee-cup" d="M0 150.646c0 13.353 10.916 24.182 24.381 24.182h845.205c13.466 0 24.381-10.829 24.381-24.182 0-83.773-69.448-150.646-154.414-150.646h-585.141c-84.967 0-154.412 66.872-154.412 150.646zM51.722 126.469c11.142-44.652 52.483-78.116 102.69-78.116h585.141c50.207 0 91.551 33.464 102.692 78.116h-790.523zM780.191 530.056c0 13.353 10.916 24.178 24.381 24.178h130.033c48.988 0 89.395-38.629 89.395-87.412v-63.233c0-83.773-69.443-150.646-154.414-150.646h-76.283c-13.466 0-24.381 10.824-24.381 24.177s10.916 24.177 24.381 24.177h76.283c58.936 0 105.651 46.106 105.651 102.292v63.233c0 21.196-17.674 39.056-40.632 39.056h-130.033c-13.466 0-24.381 10.825-24.381 24.178zM65.012 530.056c0 13.353 10.916 24.178 24.381 24.178h715.18c13.466 0 24.376-10.825 24.376-24.178v-189.704c0-118.764-98.488-213.878-219.428-213.878-13.466 0-24.381 10.824-24.381 24.177s10.916 24.177 24.381 24.177c94.909 0 170.665 74.348 170.665 165.524v165.526h-666.412v-165.526c0-91.177 75.757-165.524 170.666-165.524 13.465 0 24.381-10.824 24.381-24.177s-10.916-24.177-24.381-24.177c-120.943 0-219.428 95.114-219.428 213.878v189.704zM365.821 915.539c10.090 8.842 25.498 7.898 34.414-2.108 18.917-21.229 24.28-43.929 21.811-66.090-2.18-19.565-10.544-38.319-17.136-53.098-0.217-0.486-0.432-0.968-0.645-1.445-7.407-16.625-12.644-28.9-13.915-40.309-1.053-9.456 0.628-18.374 9.884-28.761 8.916-10.007 7.965-25.286-2.126-34.128s-25.498-7.898-34.414 2.108c-18.917 21.23-24.28 43.929-21.811 66.090 2.18 19.566 10.544 38.319 17.136 53.098 0.217 0.486 0.432 0.968 0.645 1.445 7.407 16.626 12.644 28.9 13.915 40.309 1.053 9.456-0.628 18.374-9.884 28.762-8.916 10.006-7.965 25.286 2.126 34.127zM499.186 851.382c9.574 9.39 25.010 9.305 34.482-0.189 15.775-15.821 20.91-33.725 18.683-51.586-1.833-14.698-8.719-28.472-13.501-38.043-0.225-0.451-0.451-0.893-0.666-1.326-5.724-11.479-8.771-18.18-9.482-23.866-0.399-3.218-0.282-6.392 4.966-11.649 9.467-9.494 9.38-24.803-0.195-34.192s-25.009-9.305-34.478 0.189c-15.778 15.821-20.913 33.725-18.686 51.586 1.832 14.698 8.719 28.472 13.505 38.043 0.226 0.451 0.446 0.893 0.662 1.326 5.724 11.479 8.774 18.18 9.483 23.866 0.401 3.218 0.281 6.392-4.963 11.649-9.468 9.494-9.383 24.803 0.19 34.192z" />
<glyph unicode="&#xe912;" glyph-name="outlined-meal-1" d="M126.035 972.8c13.053 0 23.635-10.916 23.635-24.381v-325.078c0-22.515 17.569-40.635 39.379-40.635h39.376v365.712c0 13.465 10.582 24.381 23.635 24.381s23.635-10.916 23.635-24.381v-365.712h39.381c21.81 0 39.379 18.12 39.379 40.635v325.078c0 13.465 10.582 24.381 23.635 24.381s23.635-10.916 23.635-24.381v-325.078c0-40.98-26.611-75.45-63.014-86.042l-0.003-499.104c0-49.434-38.724-89.395-86.649-89.395s-86.649 39.962-86.649 89.395l0.003 499.104c-36.404 10.592-63.014 45.062-63.014 86.042v325.078c0 13.465 10.582 24.381 23.635 24.381zM212.684 533.945l-0.003-495.75c0-22.513 17.569-40.632 39.379-40.632s39.379 18.12 39.379 40.632l0.003 495.75h-78.757zM786.35 787.566c-32.957-90.728-53.791-217.727-53.791-359.272 0-22.513 17.567-40.632 39.378-40.632 13.051 0 23.634-10.916 23.634-24.381v-325.079c0-22.513 17.572-40.632 39.378-40.632 21.811 0 39.378 18.12 39.378 40.632v879.942c-10.342-5.117-21.181-13.772-32.348-26.76-20.019-23.281-39.117-58.362-55.629-103.816zM806.615 923.74c25.216 29.319 56.028 49.060 91.351 49.060 13.051 0 23.634-10.916 23.634-24.381v-910.219c0-49.434-38.723-89.395-86.651-89.395-47.923 0-86.646 39.962-86.646 89.395v304.051c-36.408 10.593-63.017 45.061-63.017 86.042 0 145.827 21.386 278.89 56.796 376.382 17.674 48.656 39.301 89.724 64.532 119.065z" />
<glyph unicode="&#xe913;" glyph-name="outlined-meal-2" d="M431.015 966.845c-10.179-8.818-11.28-24.215-2.461-34.392 9.339-10.776 11.117-20.167 10.033-30.171-1.288-11.894-6.588-24.637-13.979-41.695-0.207-0.478-0.416-0.959-0.627-1.445-6.605-15.228-14.924-34.407-17.089-54.384-2.438-22.504 2.828-45.621 21.661-67.353 8.82-10.177 24.22-11.278 34.399-2.461s11.28 24.216 2.461 34.392c-9.339 10.776-11.117 20.167-10.033 30.171 1.289 11.894 6.588 24.637 13.979 41.695 0.207 0.478 0.416 0.959 0.627 1.445 6.605 15.228 14.924 34.407 17.089 54.384 2.438 22.504-2.827 45.621-21.661 67.353-8.819 10.177-24.22 11.278-34.399 2.461zM564.378 900.904c-9.672-9.374-9.907-24.809-0.532-34.476 5.309-5.476 5.56-8.967 5.12-12.602-0.727-6.025-3.85-13.045-9.554-24.805-0.215-0.436-0.43-0.88-0.65-1.334-4.797-9.867-11.628-23.918-13.44-38.877-2.186-18.037 2.816-36.218 18.524-52.414 9.375-9.667 24.817-9.904 34.483-0.531s9.907 24.809 0.532 34.476c-5.315 5.476-5.565 8.967-5.125 12.602 0.732 6.025 3.855 13.045 9.559 24.805 0.21 0.436 0.43 0.88 0.65 1.334 4.797 9.867 11.628 23.918 13.44 38.877 2.186 18.037-2.816 36.218-18.524 52.414-9.375 9.667-24.817 9.905-34.483 0.531zM422.596 558.323v-49.603c-203.895-41.478-357.579-221.985-357.579-438.024 0-13.466 10.918-24.381 24.386-24.381h845.197c13.466 0 24.381 10.916 24.381 24.381 0 216.044-153.682 396.548-357.581 438.025v49.602c0 49.437-39.951 89.397-89.402 89.397-49.448 0-89.403-39.961-89.403-89.397zM447.636 463.733c2.127 0.056 4.187 0.385 6.145 0.952 19.006 2.791 38.446 4.237 58.219 4.237s39.209-1.445 58.214-4.236c1.961-0.568 4.019-0.897 6.149-0.953 181.345-29.547 321.797-181.836 333.112-368.655h-794.952c11.315 186.819 151.766 339.108 333.112 368.655zM552.627 515.858c-13.379 1.208-26.931 1.826-40.627 1.826s-27.249-0.617-40.633-1.826v42.466c0 22.515 18.127 40.635 40.631 40.635s40.629-18.121 40.629-40.635v-42.465zM448.807 390.6c-3.602 12.974-17.042 20.577-30.019 16.973-89.037-24.704-164.018-83.871-209.208-162.14-6.733-11.663-2.736-26.573 8.928-33.306s26.578-2.734 33.311 8.929c38.895 67.364 103.479 118.292 180.013 139.53 12.977 3.604 20.578 17.039 16.976 30.013zM0-26.819c0-13.466 10.918-24.381 24.386-24.381h975.228c13.471 0 24.387 10.916 24.387 24.381s-10.916 24.381-24.387 24.381h-975.228c-13.468 0-24.386-10.916-24.386-24.381z" />
<glyph unicode="&#xe914;" glyph-name="outlined-load" d="M896 460.8c0-91.433-32.625-179.86-92.006-249.39-59.377-69.524-141.619-115.579-231.921-129.884-90.308-14.3-182.754 4.086-260.712 51.86s-136.312 121.795-164.566 208.753c-28.254 86.953-24.553 181.14 10.436 265.612s98.972 153.687 180.438 195.196c81.466 41.509 175.070 52.588 263.973 31.244 88.909-21.344 167.281-73.711 221.020-147.681l103.557 75.237-0.123 0.169c-20.321 27.94-43.274 53.567-68.434 76.594-63.58 58.182-141.261 99.766-226.135 120.144-118.543 28.459-243.348 13.687-351.97-41.658s-193.93-147.633-240.583-260.261c-46.652-112.629-51.586-238.21-13.915-354.152s115.477-214.636 219.421-278.333c103.945-63.698 227.206-88.218 347.612-69.146 120.412 19.072 230.062 80.481 309.238 173.179 56.689 66.376 95.089 145.679 112.328 230.118 6.835 33.485 10.342 67.784 10.342 102.4h-128z" />
<glyph unicode="&#xe915;" glyph-name="outlined-drinks" d="M661.97 955.258c3.19 10.397 13.199 17.542 24.576 17.542h209.454c14.136 0 25.6-10.916 25.6-24.381s-11.464-24.381-25.6-24.381h-190.264l-44.882-146.282h235.146c14.136 0 25.6-10.916 25.6-24.381v-16.471c0-5.705-2.099-11.23-5.939-15.612l-378.061-431.863v-291.86h148.946c14.136 0 25.6-10.916 25.6-24.381s-11.464-24.381-25.6-24.381h-173.957c-0.195-0.005-0.389-0.005-0.589-0.005-0.196 0-0.393 0-0.588 0.005h-173.958c-14.139 0-25.6 10.916-25.6 24.381s11.461 24.381 25.6 24.381h148.946v291.86l-378.063 431.863c-3.836 4.382-5.937 9.907-5.937 15.612v16.471c0 13.465 11.462 24.381 25.6 24.381h479.508l54.461 177.501zM592.548 728.994h-424.293l343.745-392.667 343.747 392.667h-209.853l-74.414-242.521c-3.963-12.924-18.181-20.34-31.749-16.564-13.573 3.777-21.361 17.316-17.393 30.241l70.211 228.844z" />
<glyph unicode="&#xe916;" glyph-name="outlined-ventilator" d="M512 924.038c-199.612 0-361.412-163.669-361.412-365.542s161.799-365.539 361.412-365.539c199.613 0 361.411 163.666 361.411 365.539s-161.797 365.542-361.411 365.542zM102.4 558.496c0 228.824 183.394 414.304 409.6 414.304s409.6-185.48 409.6-414.304c0-198.14-137.513-363.783-321.26-404.64v-58.813h104.412c48.845 0 88.34-39.931 88.34-89.37v-32.492c0-13.466-10.783-24.381-24.090-24.381h-514.010c-13.307 0-24.094 10.916-24.094 24.381v32.492c0 49.439 39.496 89.37 88.345 89.37h104.408v58.813c-183.743 40.858-321.253 206.5-321.253 404.64zM471.841 146.161v-75.5c0-13.466-10.787-24.381-24.094-24.381h-128.502c-22.256 0-40.157-18.12-40.157-40.607v-8.11h465.821v8.11c0 22.487-17.905 40.607-40.156 40.607h-128.502c-13.307 0-24.095 10.916-24.095 24.381v75.5c-13.215-1.3-26.609-1.966-40.156-1.966-13.55 0-26.947 0.666-40.159 1.966zM442.226 887.941c18.69 13.583 42.089 19.871 69.773 19.871 66.413 0 120.47-54.664 120.47-121.862 0-46.351-35.241-72.174-57.856-88.743l-0.292-0.215c-1.050-0.767-2.079-1.518-3.082-2.254-10.189-7.452-18.278-13.365-24.545-19.509 12.754-3.873 24.617-9.825 35.205-17.469 15.596 14.025 36.096 22.598 58.609 22.598 1.101 0 2.202 0 3.302 0.001 50.668 0.006 102.221 0.013 140.933-13.522 20.669-7.226 39.526-18.844 52.961-37.754 13.43-18.908 19.645-42.581 19.645-70.587 0-67.198-54.057-121.863-120.468-121.863-45.814 0-71.342 35.644-87.731 58.523l-0.205 0.291c-0.763 1.059-1.505 2.098-2.232 3.116-7.378 10.32-13.225 18.505-19.308 24.85-3.83-12.902-9.713-24.904-17.27-35.616 13.86-15.773 22.333-36.511 22.333-59.28 0-1.111 0-2.227 0-3.343 0.010-51.246 0.015-103.393-13.368-142.556-7.148-20.91-18.637-39.987-37.33-53.571-18.688-13.583-42.086-19.871-69.771-19.871-66.411 0-120.471 54.661-120.471 121.861 0 46.351 35.244 72.177 57.858 88.745l0.293 0.215c1.047 0.768 2.073 1.516 3.079 2.253 10.191 7.455 18.277 13.368 24.548 19.512-12.76 3.876-24.63 9.83-35.224 17.48-15.597-14.034-36.107-22.615-58.625-22.615-1.101 0-2.202 0-3.304 0-50.668-0.005-102.219-0.010-140.936 13.522-20.669 7.229-39.525 18.846-52.958 37.756-13.432 18.908-19.65 42.581-19.65 70.587 0 67.198 54.060 121.863 120.471 121.863 45.81 0 71.348-35.637 87.743-58.516l0.209-0.291c0.759-1.059 1.502-2.098 2.229-3.115 7.385-10.324 13.242-18.513 19.331-24.861 3.827 12.903 9.712 24.905 17.267 35.618-13.858 15.772-22.332 36.509-22.332 59.277 0 1.115 0 2.23 0 3.345-0.006 51.247-0.013 103.393 13.37 142.558 7.145 20.911 18.634 39.984 37.328 53.57zM462.59 611.854c-14.079-13.34-22.874-32.312-22.874-53.357 0-17.652 6.188-33.846 16.492-46.481 1.049-1.012 1.995-2.108 2.833-3.272 13.197-14.361 32.037-23.347 52.958-23.347 17.383 0 33.327 6.204 45.794 16.54 1.106 1.194 2.309 2.258 3.599 3.187 14.085 13.341 22.892 32.319 22.892 53.373 0 17.575-6.139 33.705-16.358 46.316-1.172 1.11-2.222 2.323-3.139 3.619-13.189 14.255-31.954 23.166-52.788 23.166-17.376 0-33.317-6.2-45.782-16.529-1.111-1.205-2.327-2.278-3.626-3.214zM409.201 494.922c-7.863 12.982-13.391 27.569-15.99 43.163-10.959 4.034-20.076 10.707-27.627 17.954-10.365 9.95-19.421 22.659-27.025 33.332-0.864 1.212-1.709 2.399-2.535 3.551-18.542 25.873-30.695 38.671-48.942 38.671-39.818 0-72.283-32.852-72.283-73.1 0-20.734 4.545-33.616 10.589-42.126 6.043-8.507 15.377-15.166 29.564-20.126 30.154-10.541 73.573-10.849 128.505-10.849 9.701 0 18.696 3.54 25.743 9.529zM574.879 454.528c-12.846-7.967-27.284-13.563-42.711-16.195-3.994-11.085-10.593-20.306-17.756-27.945-9.839-10.481-22.406-19.635-32.958-27.32-1.199-0.876-2.372-1.731-3.511-2.565-25.587-18.749-38.226-31.027-38.226-49.464 0-40.248 32.465-73.098 72.283-73.098 20.507 0 33.245 4.598 41.662 10.711 8.412 6.113 14.996 15.555 19.896 29.901 10.419 30.495 10.726 74.404 10.726 129.966 0 9.8-3.497 18.888-9.405 26.010zM614.784 622.090c7.869-12.987 13.404-27.58 16.005-43.182 10.957-4.035 20.076-10.708 27.622-17.958 10.363-9.951 19.415-22.662 27.013-33.335 0.865-1.212 1.71-2.398 2.534-3.551 18.534-25.874 30.679-38.668 48.922-38.668 39.818 0 72.284 32.852 72.284 73.1 0 20.734-4.547 33.616-10.593 42.126-6.042 8.507-15.375 15.166-29.563 20.126-30.152 10.541-73.569 10.849-128.502 10.849-9.692 0-18.678-3.531-25.723-9.507zM449.118 662.462c12.846 7.967 27.282 13.566 42.713 16.197 3.991 11.088 10.591 20.309 17.757 27.944 9.836 10.481 22.406 19.635 32.958 27.322 1.198 0.873 2.371 1.727 3.512 2.563 25.585 18.748 38.226 31.027 38.226 49.462 0 40.247-32.466 73.1-72.285 73.1-20.505 0-33.247-4.598-41.662-10.715-8.412-6.113-14.994-15.553-19.896-29.899-10.42-30.493-10.724-74.404-10.724-129.968 0-9.796 3.491-18.882 9.402-26.007zM356.922 825.141c7.671-11.002 5.076-26.214-5.796-33.977-26.882-19.192-50.195-42.774-69.17-69.962-7.676-10.999-22.71-13.619-33.58-5.851s-13.458 22.981-5.783 33.979c22.147 31.734 49.378 59.277 80.751 81.677 10.873 7.763 25.906 5.137 33.577-5.865zM667.5 825.142c7.675 11.002 22.707 13.628 33.582 5.865 31.37-22.4 58.604-49.943 80.748-81.677 7.675-10.999 5.089-26.212-5.78-33.98s-25.907-5.147-33.582 5.852c-18.975 27.189-42.286 50.77-69.166 69.962-10.875 7.763-13.471 22.975-5.801 33.978zM638.269 748.279c8.525 10.343 23.716 11.74 33.935 3.119 8.545-7.207 16.046-14.797 22.707-21.539l0.312-0.315c9.405-9.522 9.405-24.959-0.005-34.48s-24.668-9.519-34.074 0.003c-6.958 7.044-13.061 13.195-19.794 18.873-10.22 8.621-11.602 23.995-3.082 34.339zM376.965 743.398c9.41-9.521 9.411-24.958 0.002-34.48-6.96-7.043-13.037-13.216-18.648-20.029-8.518-10.345-23.711-11.744-33.934-3.124s-11.606 23.993-3.087 34.338c7.12 8.647 14.619 16.236 21.281 22.978l0.311 0.315c9.409 9.522 24.665 9.523 34.075 0.003zM699.602 430.792c10.225-8.617 11.607-23.992 3.087-34.335-7.122-8.658-14.628-16.251-21.294-22.999l-0.297-0.297c-9.405-9.523-24.663-9.523-34.074-0.005s-9.411 24.96 0 34.478c6.958 7.045 13.036 13.22 18.647 20.035 8.515 10.342 23.706 11.745 33.93 3.123zM329.194 421.934c9.411 9.518 24.666 9.518 34.074-0.005 6.958-7.040 13.058-13.194 19.791-18.872 10.222-8.622 11.601-23.992 3.082-34.34-8.52-10.342-23.713-11.735-33.934-3.118-8.551 7.214-16.054 14.807-22.721 21.555l-0.295 0.302c-9.409 9.518-9.407 24.955 0.003 34.478zM248.376 401.213c10.87 7.767 25.904 5.151 33.58-5.852 18.975-27.187 42.288-50.77 69.17-69.96 10.873-7.762 13.468-22.973 5.796-33.976s-22.705-13.629-33.577-5.868c-31.373 22.4-58.605 49.94-80.751 81.679-7.676 10.998-5.087 26.209 5.783 33.976zM776.049 401.213c10.87-7.767 13.455-22.979 5.78-33.976-22.144-31.734-49.377-59.279-80.748-81.679-10.875-7.762-25.907-5.135-33.582 5.868-7.67 10.998-5.074 26.214 5.801 33.976 26.88 19.19 50.191 42.772 69.166 69.96 7.675 11.003 22.712 13.619 33.582 5.852z" />
<glyph unicode="&#xe917;" glyph-name="outlined-luggage" d="M291.446 947.2c0 14.138 12.343 25.6 27.569 25.6h385.968c15.227 0 27.571-11.461 27.571-25.6s-12.344-25.6-27.571-25.6h-27.566v-281.6h110.275c45.681 0 82.708-34.384 82.708-76.8v-460.8c0-42.414-37.028-76.8-82.708-76.8v-51.2c0-14.136-12.344-25.6-27.566-25.6-15.227 0-27.571 11.464-27.571 25.6v51.2h-441.108v-51.2c0-14.136-12.343-25.6-27.569-25.6s-27.57 11.464-27.57 25.6v51.2c-45.678 0-82.707 34.386-82.707 76.8v460.8c0 42.416 37.029 76.8 82.707 76.8h110.277v281.6h-27.569c-15.226 0-27.569 11.462-27.569 25.6zM401.723 921.6v-281.6h220.552v281.6h-220.552zM236.307 588.8c-15.226 0-27.569-11.462-27.569-25.6v-102.4h606.524v102.4c0 14.138-12.344 25.6-27.571 25.6h-551.384zM815.263 409.6h-606.524v-153.6h606.524v153.6zM815.263 204.8h-606.524v-102.4c0-14.136 12.343-25.6 27.569-25.6h551.384c15.227 0 27.571 11.464 27.571 25.6v102.4z" />
<glyph unicode="&#xe918;" glyph-name="outlined-backpack" d="M296.96 314.516c0 13.46 10.697 24.376 23.894 24.376h382.291c13.199 0 23.895-10.916 23.895-24.376v-195.052c0-13.466-10.696-24.381-23.895-24.381h-382.291c-13.196 0-23.894 10.916-23.894 24.381v195.052zM344.746 290.135v-146.289h334.509v146.289h-334.509zM393.572 818.281c22.693 5.386 46.341 8.233 70.641 8.233h95.571c24.3 0 47.949-2.847 70.641-8.233-7.741 59.693-57.81 105.757-118.426 105.757-60.615 0-110.686-46.064-118.428-105.757zM679.255 802.223c112.246-47.765 191.145-160.811 191.145-292.661v-390.097c0-94.254-74.88-170.665-167.255-170.665h-382.291c-92.371 0-167.254 76.411-167.254 170.665v390.097c0 131.85 78.898 244.896 191.146 292.661 0.048 94.215 74.911 170.577 167.254 170.577s167.204-76.362 167.255-170.577zM464.214 777.753c-145.155 0-262.827-120.073-262.827-268.191v-390.097c0-67.323 53.487-121.902 119.467-121.902h382.291c65.981 0 119.47 54.579 119.47 121.902v390.097c0 148.118-117.673 268.191-262.83 268.191h-95.571zM320.854 582.705c0-13.465 10.697-24.381 23.893-24.381h334.509c13.194 0 23.89 10.916 23.89 24.381s-10.696 24.381-23.89 24.381h-334.509c-13.196 0-23.893-10.915-23.893-24.381z" />
<glyph unicode="&#xe919;" glyph-name="outlined-single-bed" d="M177.132 874.585c0 54.423 44.308 98.215 98.909 98.215h471.92c54.6 0 98.908-43.792 98.908-98.215v-274.566l34.519-340.998h16.036c6.41 0 12.559-2.54 17.096-7.055 4.531-4.516 7.081-10.644 7.081-17.034v-187.935c0-6.39-2.55-12.518-7.081-17.034-4.536-4.521-10.685-7.055-17.096-7.055h-50.555v-50.033c0-13.307-10.824-24.095-24.177-24.095s-24.177 10.788-24.177 24.095v50.033h-573.028v-50.033c0-13.307-10.825-24.095-24.178-24.095s-24.178 10.788-24.178 24.095v50.033h-50.553c-13.353 0-24.178 10.783-24.178 24.090v187.935c0 13.307 10.825 24.090 24.178 24.090h16.034l34.52 340.998v274.567zM222.641 574.422l-31.293-315.401h641.308l-31.299 315.401h-578.716zM798.515 622.603v251.982c0 27.608-22.451 50.034-50.555 50.034h-471.92c-28.102 0-50.554-22.426-50.554-50.034v-251.982h138.473v199.632c0 13.304 10.825 24.090 24.178 24.090h247.726c13.353 0 24.177-10.786 24.177-24.090v-199.632h138.476zM611.686 622.603v175.541h-199.371v-175.541h199.371zM859.904 210.842h-709.148l-0.001-139.756h722.491v139.756h-13.343z" />
<glyph unicode="&#xe91a;" glyph-name="outlined-wifi" d="M512 51.2c38.559 0 69.816 31.437 69.816 70.216s-31.258 70.221-69.816 70.221c-38.559 0-69.818-31.442-69.818-70.221s31.259-70.216 69.818-70.216zM512 402.284c67.645 0 133.059-35.942 181.729-103.26 7.562-10.455 5.263-25.093-5.135-32.696-10.394-7.603-24.95-5.289-32.507 5.166-41.58 57.508-93.952 83.983-144.087 83.983s-102.505-26.476-144.087-83.983c-7.559-10.455-22.114-12.769-32.509-5.166s-12.695 22.241-5.135 32.696c48.675 67.318 114.084 103.26 181.731 103.26zM146.172 488.765c189.021 196.77 496.091 196.77 685.111 0 8.929-9.296 8.678-24.114-0.568-33.096-9.242-8.98-23.977-8.724-32.906 0.568-170.721 177.724-447.439 177.724-618.162 0-8.931-9.293-23.664-9.549-32.908-0.568s-9.498 23.799-0.567 33.096zM5.72 628.305c279.404 322.793 733.158 322.793 1012.561 0 8.438-9.75 7.419-24.534-2.273-33.021s-24.397-7.464-32.835 2.286c-260.849 301.36-681.495 301.36-942.347 0-8.439-9.75-23.14-10.773-32.834-2.286s-10.712 23.272-2.273 33.021z" />
<glyph unicode="&#xe91b;" glyph-name="outlined-delivery" d="M0 846.4c0 13.255 10.916 24 24.381 24h620.611c13.46 0 24.376-10.745 24.376-24v-65.988h64.276c160.947 0 290.355-132.447 290.355-294.001v-321.199c0-13.256-10.916-23.997-24.376-24.003l-66.796-0.005c-10.88-51.016-55.716-90.004-110.52-90.004-54.799 0-99.64 38.989-110.515 89.999h-355.245c-10.878-51.011-55.715-89.999-110.517-89.999s-99.639 38.989-110.517 89.999h-111.132c-6.466 0-12.668 2.529-17.24 7.030s-7.141 10.604-7.141 16.968v681.203zM135.514 189.199c10.878 51.011 55.715 89.999 110.517 89.999s99.639-38.989 110.517-89.999h355.245c10.875 51.011 55.716 89.999 110.515 89.999s99.635-38.984 110.515-89.994l42.414 0.005v297.202c0 136.447-108.979 246.001-241.592 246.001h-64.276v-291.012c0-13.256-10.916-24.003-24.376-24.003-13.466 0-24.381 10.747-24.381 24.003v314.591c-0.005 0.14-0.005 0.28-0.005 0.421s0 0.281 0.005 0.421v65.567h-571.849v-633.201h86.752zM246.030 231.199c-34.798 0-64.277-28.846-64.277-65.997 0-37.156 29.479-66.002 64.277-66.002s64.278 28.846 64.278 66.002c0 37.151-29.479 65.997-64.278 65.997zM822.308 231.199c-34.796 0-64.276-28.846-64.276-65.997 0-37.156 29.481-66.002 64.276-66.002s64.276 28.846 64.276 66.002c0 37.151-29.481 65.997-64.276 65.997z" />
<glyph unicode="&#xe91c;" glyph-name="outlined-package" d="M500.325 969.823c7.277 3.969 16.073 3.969 23.348 0l487.619-265.975c7.834-4.272 12.708-12.482 12.708-21.404v-443.289c0-8.919-4.874-17.132-12.708-21.402l-487.619-265.979c-7.276-3.968-16.071-3.968-23.348 0l-487.619 265.979c-7.833 4.27-12.706 12.483-12.706 21.402v443.289c0 8.922 4.873 17.132 12.706 21.404l243.475 132.805c0.207 0.116 0.415 0.23 0.625 0.34l243.519 132.829zM268.188 787.658l-192.892-105.214 436.704-238.202 192.891 105.214-436.703 238.202zM755.809 577.228l192.896 105.217-436.705 238.202-192.896-105.216 436.705-238.203zM767.124 527.858l-230.743-125.861v-387.743l438.856 239.375v387.744l-207.36-113.106c-0.246-0.141-0.497-0.278-0.753-0.41zM487.619 401.997l-438.857 239.377v-387.744l438.857-239.375v387.743z" />
<glyph unicode="&#xe91d;" glyph-name="outlined-email" d="M512 924.038c-255.956 0-463.238-207.282-463.238-463.238 0-255.959 207.282-463.237 463.238-463.237 13.466 0 24.381-10.916 24.381-24.381s-10.916-24.381-24.381-24.381c-282.887 0-512 229.115-512 512 0 282.887 229.113 512 512 512 282.885 0 512-229.113 512-512v-82.253c0-88.335-71.501-159.831-159.831-159.831-70.38 0-130.068 45.384-151.429 108.513-43.218-64.819-116.992-107.525-200.74-107.525-133.151 0-241.096 107.95-241.096 241.101 0 133.153 107.944 241.101 241.096 241.101 61.466 0 106.926-6.56 143.703-19.022 37.161-12.593 64.072-30.749 88.812-51.808 5.448-4.633 8.581-11.42 8.581-18.567l0.005-233.962c0-61.404 49.669-111.073 111.068-111.073 61.404 0 111.068 49.669 111.068 111.073v82.253c0 255.956-207.278 463.238-463.237 463.238zM704.338 461.188l-0.005 139.826c-18.831 14.995-38.513 26.955-64.282 35.687-30.085 10.195-69.832 16.442-128.051 16.442-106.22 0-192.334-86.115-192.334-192.339s86.114-192.338 192.334-192.338 192.333 86.113 192.333 192.338c0 0.128 0 0.255 0.005 0.383z" />
<glyph unicode="&#xe91e;" glyph-name="outlined-call" d="M585.139 948.419c0 13.465 10.916 24.381 24.381 24.381 228.89 0 414.479-185.607 414.479-414.499 0-13.465-10.916-24.381-24.387-24.381-13.466 0-24.381 10.916-24.381 24.381 0 201.972-163.763 365.737-365.711 365.737-13.466 0-24.381 10.916-24.381 24.381zM138.812 870.504c6.468 0 12.671-2.569 17.244-7.143l206.749-206.762c9.521-9.521 9.521-24.955 0-34.476l-68.916-68.921c-28.622-28.624-28.622-74.741 0-103.364l206.749-206.761c28.621-28.626 74.726-28.626 103.342 0l68.92 68.92c4.572 4.572 10.772 7.142 17.244 7.142 6.467 0 12.667-2.57 17.244-7.142l206.746-206.766c9.503-9.498 9.523-24.899 0.051-34.427-161.679-162.611-423.786-162.575-585.869-0.481l-206.749 206.761c-162.090 162.104-162.090 424.177 0 586.277 4.573 4.574 10.776 7.143 17.244 7.143zM139.375 811.077c-126.134-143.838-120.573-362.252 16.681-499.514l206.749-206.761c137.278-137.288 355.674-142.802 499.096-16.292l-171.756 171.766-51.671-51.676c-47.667-47.667-124.657-47.667-172.324 0l-206.749 206.761c-47.663 47.667-47.663 124.653 0 172.319l51.679 51.682-171.705 171.716zM585.139 753.357c0 13.466 10.916 24.381 24.381 24.381 121.4 0 219.433-98.047 219.433-219.44 0-13.465-10.916-24.381-24.387-24.381-13.466 0-24.381 10.916-24.381 24.381 0 94.472-76.211 170.678-170.665 170.678-13.466 0-24.381 10.916-24.381 24.381z" />
<glyph unicode="&#xe91f;" glyph-name="outlined-chat-1" d="M0 753.372c0 121.386 98.034 219.428 219.431 219.428h585.136c121.4 0 219.433-98.042 219.433-219.428v-325.079c0-121.39-98.033-219.428-219.433-219.428h-314.972l-252.918-252.923c-6.974-6.973-17.463-9.057-26.576-5.284s-15.055 12.662-15.055 22.523v237.015c-109.875 12.093-195.046 104.955-195.046 218.097v325.079zM219.431 924.038c-94.453 0-170.66-76.201-170.66-170.666v-325.079c0-94.469 76.207-170.665 170.66-170.665 13.468 0 24.386-10.916 24.386-24.381v-201.196l218.43 218.429c4.573 4.577 10.777 7.148 17.245 7.148h325.075c94.454 0 170.66 76.196 170.66 170.665v325.079c0 94.466-76.206 170.666-170.66 170.666h-585.136z" />
<glyph unicode="&#xe920;" glyph-name="outlined-faq" d="M196.556 789.575c11.487 74.616 75.018 132.025 152.616 132.025h520.357c85.842 0 154.47-70.256 154.47-156.342v-264.045c0-77.758-55.992-142.603-130.089-154.42v-241.649c0-9.871-5.985-18.77-15.15-22.508-9.16-3.738-19.681-1.582-26.619 5.463l-130.145 132.076c-14.945-4.823-30.694-7.332-47.171-7.332h-249.956l-253.012-205.573c-6.939-7.040-17.459-9.196-26.621-5.458s-15.148 12.631-15.148 22.508v190.449c-74.096 11.817-130.089 76.662-130.089 154.419v264.045c0 86.087 68.627 156.342 154.47 156.342h42.086zM243.541 769.411c0.233-1.351 0.354-2.739 0.354-4.156 0-1.564-0.148-3.094-0.431-4.576v-259.466c0-60.017 47.586-107.705 105.708-107.705h260.179c6.538 0 12.805-2.616 17.388-7.27l118.564-120.325c0.169-0.169 0.338-0.338 0.507-0.512l99.338-100.818v204.605c0 13.435 10.916 24.32 24.381 24.32 58.122 0 105.708 47.688 105.708 107.705v264.045c0 60.018-47.585 107.702-105.708 107.702h-520.357c-56.775 0-103.496-45.499-105.632-103.549zM681.119 261.663l-81.992 83.205h-249.954c-85.843 0-154.47 70.257-154.47 156.345v239.722h-40.233c-58.122 0-105.708-47.685-105.708-107.703v-264.045c0-60.017 47.586-107.704 105.708-107.704 13.466 0 24.381-10.885 24.381-24.32v-153.405l218.409 170.455c4.584 4.654 10.849 7.27 17.388 7.27h260.178c2.12 0 4.219 0.061 6.292 0.179zM526.090 740.935c25.267 0 42.834-18.668 42.834-38.611 0-2.324-0.676-4.918-4.547-9.372-3.891-4.481-8.924-8.592-16.154-14.494-1.27-1.039-2.611-2.134-4.024-3.296-16.855-13.847-42.488-35.835-42.488-74.936 0-13.432 10.918-24.32 24.378-24.32 13.466 0 24.381 10.888 24.381 24.32 0 14.588 7.972 23.625 24.73 37.393 1.034 0.851 2.135 1.744 3.287 2.677 7.014 5.696 15.846 12.865 22.743 20.804 8.735 10.055 16.456 23.524 16.456 41.223 0 49.589-42.276 87.25-91.597 87.25-38.176 0-71.413-22.347-85.301-54.825-5.283-12.355 0.475-26.642 12.86-31.911s26.709 0.474 31.992 12.828c6.060 14.171 21.39 25.269 40.449 25.269zM723.395 789.575c-13.466 0-24.381-10.888-24.381-24.32v-165.027c0-13.432 10.916-24.32 24.381-24.32s24.381 10.888 24.381 24.32v165.027c0 13.432-10.916 24.32-24.381 24.32zM503.010 501.211c0-13.431 10.915-24.32 24.381-24.32h0.87c13.466 0 24.376 10.889 24.376 24.32s-10.911 24.32-24.376 24.32h-0.87c-13.466 0-24.381-10.889-24.381-24.32zM698.148 501.211c0-13.431 10.916-24.32 24.381-24.32h0.865c13.466 0 24.381 10.889 24.381 24.32s-10.916 24.32-24.381 24.32h-0.865c-13.466 0-24.381-10.889-24.381-24.32z" />
<glyph unicode="&#xe921;" glyph-name="outlined-chat" d="M354.629 859.761c0 62.227 50.812 113.039 113.039 113.039h443.293c62.228 0 113.039-50.812 113.039-113.039v-354.632c0-53.862-38.067-99.169-88.658-110.382v-155.592c0-9.861-5.939-18.749-15.053-22.523-9.108-3.779-19.594-1.69-26.568 5.284l-170.179 170.173h-54.17v-154.906c0-0.579-0.020-1.152-0.061-1.72-1.961-60.534-51.983-109.348-112.978-109.348h-255.878l-170.177-170.173c-6.973-6.973-17.459-9.057-26.57-5.284s-15.051 12.662-15.051 22.523v155.592c-50.59 11.213-88.659 56.52-88.659 110.382v354.632c0 62.227 50.812 113.039 113.040 113.039h241.589v152.935zM403.39 681.86v-176.731c0-35.297 28.98-64.276 64.278-64.276h265.977c6.467 0 12.667-2.57 17.239-7.142l135.695-135.695v118.456c0 13.466 10.916 24.381 24.381 24.381 35.297 0 64.276 28.98 64.276 64.276v354.632c0 35.296-28.979 64.277-64.276 64.277h-443.293c-35.297 0-64.278-28.981-64.278-64.277v-176.731c0.005-0.195 0.007-0.389 0.007-0.585s-0.002-0.391-0.007-0.585zM354.629 658.064h-241.589c-35.297 0-64.278-28.981-64.278-64.277v-354.632c0-35.297 28.981-64.276 64.278-64.276 13.465 0 24.381-10.916 24.381-24.381v-118.456l135.697 135.695c4.572 4.572 10.774 7.142 17.24 7.142h265.977c35.297 0 64.276 28.979 64.276 64.276v152.934h-152.943c-62.227 0-113.039 50.811-113.039 113.039v152.935z" />
<glyph unicode="&#xe922;" glyph-name="outlined-like" d="M201.697 924.038c-84.551 0-152.935-68.384-152.935-152.935v-354.632c0-84.552 68.384-152.934 152.935-152.934 13.466 0 24.381-10.916 24.381-24.381v-207.114l224.353 224.353c4.572 4.572 10.774 7.142 17.24 7.142h354.632c84.552 0 152.934 68.383 152.934 152.934v354.632c0 84.551-68.383 152.935-152.934 152.935h-620.606zM0 771.103c0 111.481 90.215 201.697 201.697 201.697h620.606c111.483 0 201.697-90.215 201.697-201.697v-354.632c0-111.483-90.214-201.697-201.697-201.697h-344.533l-258.833-258.831c-6.973-6.973-17.46-9.057-26.57-5.284s-15.051 12.662-15.051 22.523v243.046c-99.963 12.022-177.316 97.014-177.316 200.243v354.632zM276.807 665.693c0 71.585 58.201 129.785 129.786 129.785 38.949 0 79.053-17.294 105.404-46.231 26.351 28.937 66.456 46.231 105.403 46.231 71.588 0 129.787-58.2 129.787-129.785 0-56.302-33.802-109.193-75.668-153.542-42.522-45.038-97.101-85.205-146.534-116.319-7.936-4.997-18.037-4.997-25.975 0-49.435 31.114-104.011 71.282-146.532 116.319-41.871 44.348-75.671 97.24-75.671 153.542zM406.593 746.717c-44.655 0-81.024-36.369-81.024-81.023 0-37.281 23.089-78.467 62.365-120.067 35.131-37.21 80.356-71.727 124.063-100.207 43.707 28.48 88.932 62.997 124.061 100.207 39.281 41.6 62.367 82.785 62.367 120.067 0 44.655-36.367 81.023-81.024 81.023-36.383 0-71.593-22.83-82.668-51.414-3.64-9.386-12.672-15.572-22.736-15.572-10.066 0-19.097 6.186-22.734 15.572-11.077 28.584-46.284 51.414-82.67 51.414z" />
<glyph unicode="&#xe923;" glyph-name="outlined-attendance" d="M178.373 613.394c12.655 144.294 137.913 257.006 289.307 257.006h88.66c151.393 0 276.644-112.712 289.3-257.006h65.326c61.706 0 113.034-48.831 113.034-109.763v-171.334c0-60.933-51.328-109.763-113.034-109.763h-88.658c-13.466 0-24.381 10.788-24.381 24.095v342.67c0 128.014-107.756 232.911-241.587 232.911h-88.66c-133.833 0-241.596-104.898-241.596-232.911v-342.67c0-80.896 67.867-147.241 152.938-147.241h132.989c13.466 0 24.381-10.788 24.381-24.095s-10.916-24.095-24.381-24.095h-132.989c-102.616 0-187.936 74.322-200.19 171.336h-65.789c-61.708 0-113.041 48.829-113.041 109.763v171.334c0 60.933 51.333 109.763 113.041 109.763h65.331zM177.321 565.206h-64.28c-35.818 0-64.28-28.272-64.28-61.574v-171.334c0-33.306 28.462-61.578 64.28-61.578h64.28v294.486zM846.689 565.206v-294.486h64.276c35.814 0 64.271 28.273 64.271 61.578v171.334c0 33.304-28.457 61.574-64.271 61.574h-64.276z" />
<glyph unicode="&#xe924;" glyph-name="outlined-hourglass" d="M242.951 198.134v-200.079h-64.641c-6.531 0-12.794-2.596-17.413-7.214-4.618-4.613-7.213-10.88-7.213-17.408-0.070-3.256 0.519-6.487 1.732-9.508s3.024-5.76 5.325-8.064c2.3-2.299 5.043-4.111 8.062-5.325s6.253-1.802 9.506-1.731h696.682c3.251-0.072 6.482 0.517 9.503 1.731s5.76 3.026 8.064 5.325c2.299 2.304 4.111 5.043 5.325 8.064s1.802 6.252 1.731 9.508c0 3.231-0.635 6.436-1.874 9.421-1.239 2.99-3.052 5.704-5.34 7.987-2.284 2.289-4.997 4.101-7.987 5.34-2.985 1.239-6.19 1.874-9.421 1.874h-60.027v200.079c0.046 55.429-16.031 109.681-46.269 156.134-30.244 46.454-73.344 83.113-124.052 105.503 50.708 22.393 93.809 59.050 124.052 105.505 30.239 46.456 46.316 100.704 46.269 156.136v200.077h60.027c3.231 0 6.436 0.637 9.421 1.874 2.99 1.238 5.704 3.051 7.987 5.338 2.289 2.287 4.101 5.001 5.34 7.989s1.874 6.19 1.874 9.424c0.369 3.419 0 6.876-1.080 10.141s-2.842 6.261-5.176 8.787c-2.33 2.527-5.176 4.525-8.346 5.861s-6.584 1.98-10.020 1.887h-696.682c-3.253 0.070-6.487-0.519-9.506-1.732s-5.762-3.024-8.062-5.325c-2.301-2.301-4.112-5.043-5.325-8.063s-1.802-6.253-1.732-9.506c-0.284-3.402 0.142-6.826 1.251-10.055s2.878-6.191 5.194-8.7c2.315-2.509 5.128-4.508 8.257-5.872s6.509-2.062 9.923-2.050h64.641v-200.077c0.126-55.46 16.332-109.693 46.653-156.131s73.457-83.087 124.182-105.51c-50.725-22.42-93.861-59.069-124.182-105.508s-46.526-100.669-46.653-156.129zM376.849-1.946l108.247 175.452c7.212 10.542 18.097 18.012 30.524 20.956 12.431 2.939 25.508 1.142 36.68-5.053 6.508-3.942 11.965-9.395 15.908-15.903l108.247-175.452h-299.606zM766.228 921.489v-164.166h-474.028v164.166h474.028zM293.227 710.126h473.001c-3.953-60.032-30.592-116.313-74.511-157.431-43.914-41.119-101.827-63.997-161.987-63.997-60.164 0-118.075 22.879-161.993 63.997s-70.555 97.399-74.511 157.431zM529.213 435.149c31.13 0 61.947-6.134 90.706-18.043 28.754-11.909 54.881-29.368 76.892-51.379 22.006-22.006 39.465-48.138 51.379-76.892 11.909-28.754 18.038-59.576 18.038-90.701v-200.079h-34.371l-122.614 201.103c-14.070 21.391-35.922 36.46-60.918 42.015s-51.169 1.157-72.978-12.257c-12.825-8.12-23.688-18.985-31.807-31.811l-122.099-199.050h-29.242v200.079c0.135 62.817 25.15 123.023 69.57 167.444s104.626 69.432 167.443 69.571z" />
<glyph unicode="&#xe925;" glyph-name="outlined-delete" d="M293.725 859.761v-64.276h-218.272c-13.394 0-24.252-10.916-24.252-24.381s10.858-24.381 24.252-24.381h24.256v-684.883c0-64.364 56.739-113.039 121.263-113.039h582.060c64.522 0 121.262 48.676 121.262 113.039v684.883h24.253c13.394 0 24.253 10.916 24.253 24.381s-10.86 24.381-24.253 24.381h-218.276v64.276c0 64.362-56.74 113.039-121.262 113.039h-194.020c-64.523 0-121.264-48.677-121.264-113.039zM317.699 746.722c0.093-0.001 0.186-0.002 0.279-0.002s0.186 0.001 0.279 0.002h387.484c0.092-0.001 0.184-0.002 0.282-0.002 0.092 0 0.184 0.001 0.276 0.002h169.492v-684.883c0-33.162-30.572-64.276-72.76-64.276h-582.060c-42.188 0-72.758 31.114-72.758 64.276v684.883h169.485zM681.769 795.485h-339.539v64.276c0 33.162 30.57 64.277 72.758 64.277h194.020c42.189 0 72.76-31.115 72.76-64.277v-64.276zM317.978 618.169c-13.394 0-24.253-10.916-24.253-24.381v-443.291c0-13.466 10.858-24.381 24.253-24.381s24.252 10.916 24.252 24.381v443.291c0 13.465-10.858 24.381-24.252 24.381zM511.998 618.169c-13.394 0-24.252-10.916-24.252-24.381v-443.291c0-13.466 10.858-24.381 24.252-24.381s24.255 10.916 24.255 24.381v443.291c0 13.465-10.86 24.381-24.255 24.381zM706.017 618.169c-13.394 0-24.248-10.916-24.248-24.381v-443.291c0-13.466 10.854-24.381 24.248-24.381 13.399 0 24.253 10.916 24.253 24.381v443.291c0 13.465-10.854 24.381-24.253 24.381z" />
<glyph unicode="&#xe926;" glyph-name="outlined-edit" d="M51.2-26.819c0 13.466 11.462 24.381 25.6 24.381h870.4c14.136 0 25.6-10.916 25.6-24.381s-11.464-24.381-25.6-24.381h-870.4c-14.138 0-25.6 10.916-25.6 24.381zM736.026 965.985c9.912 9.087 25.595 9.087 35.507 0l193.418-177.316c5.018-4.596 7.849-10.938 7.849-17.566s-2.831-12.969-7.849-17.566l-580.264-531.949c-2.814-2.58-6.212-4.511-9.932-5.647l-290.133-88.658c-9.234-2.826-19.351-0.435-26.129 6.17s-9.056 16.292-5.883 25.021l96.711 265.974c1.321 3.635 3.527 6.922 6.437 9.59l580.268 531.947zM195.692 402.964l-77.939-214.349 235.706 72.028 556.826 510.459-156.508 143.476-558.085-511.614zM590.269 832.333c9.805 9.701 26.015 9.996 36.198 0.658l193.423-177.315c10.184-9.338 10.496-24.772 0.691-34.473s-26.015-9.996-36.198-0.657l-193.423 177.315c-10.184 9.338-10.496 24.773-0.691 34.473z" />
<glyph unicode="&#xe927;" glyph-name="outlined-attachment" d="M940.908 879.69c-64.087 71.789-167.383 71.789-231.47 0l-457.523-512.509c-33.612-37.647-33.612-98.504 0-136.156 33.618-37.658 87.967-37.658 121.586 0l366.119 410.118c6.84 7.665 17.93 7.661 24.771-0.010 6.835-7.67 6.83-20.102-0.010-27.767l-366.118-410.117c-47.297-52.982-123.812-52.982-171.109 0-47.304 52.987-47.304 138.721 0 191.708l457.524 512.51c77.763 87.111 203.228 87.111 280.996 0 77.768-87.119 77.768-227.684 0-314.803l-493.987-553.353c-107.751-120.699-282.64-120.653-390.85-0.036l-0.030 0.036c-107.758 120.709-107.714 316.641-0.031 437.861l0.031 0.034 366.118 410.119c6.842 7.665 17.932 7.661 24.77-0.010s6.834-20.102-0.009-27.767l-366.088-410.084c-0.005-0.005 0.006 0.005 0 0-94.085-105.933-94.057-277.028-0.047-382.356 94.58-105.411 247.339-105.354 341.373-0.020l493.983 553.353c64.082 71.781 64.082 187.468 0 259.25z" />
<glyph unicode="&#xe928;" glyph-name="outlined-location" d="M512 924.038c-199.568 0-361.402-163.755-361.402-365.714 0-170.413 84.865-301.725 361.402-552.462 276.536 250.737 361.4 382.049 361.4 552.462 0 201.958-161.833 365.714-361.4 365.714zM102.4 558.324c0 228.879 183.404 414.476 409.6 414.476s409.6-185.596 409.6-414.476c0-197.364-104.622-343.443-393.59-603.365-9.129-8.212-22.891-8.212-32.023 0-288.966 259.922-393.588 406.001-393.588 603.365zM511.997 696.483c-75.397 0-136.526-61.851-136.526-138.159s61.13-138.157 136.526-138.157c75.395 0 136.527 61.85 136.527 138.157s-61.133 138.159-136.527 138.159zM327.273 558.325c0 103.228 82.699 186.92 184.724 186.92s184.722-83.692 184.722-186.92-82.698-186.92-184.722-186.92c-102.025 0-184.724 83.692-184.724 186.92z" />
<glyph unicode="&#xe929;" glyph-name="outlined-purchase-done" d="M469.167 924.038h85.667c80.896 0 147.241-67.865 147.241-152.935v-64.279h-380.151v64.279c0 85.070 66.346 152.935 147.242 152.935zM750.264 706.824v64.279c0 110.962-86.907 201.697-195.43 201.697h-85.667c-108.526 0-195.43-90.735-195.43-201.697v-64.279h-147.242c-13.307 0-24.094-10.915-24.094-24.381v-709.262c0-13.466 10.787-24.381 24.094-24.381h771.011c13.307 0 24.095 10.916 24.095 24.381v709.262c0 13.466-10.788 24.381-24.095 24.381h-147.241zM702.075 658.063v-64.275c0-13.465 10.788-24.381 24.095-24.381s24.095 10.916 24.095 24.381v64.275h123.146v-660.5h-722.822v660.5h123.148v-64.275c0-13.465 10.787-24.381 24.094-24.381s24.094 10.916 24.094 24.381v64.275h380.151zM700.186 451.64c-9.518 9.412-24.771 9.239-34.074-0.389l-188.376-194.949-119.842 124.022c-9.303 9.631-24.558 9.8-34.072 0.389-9.514-9.416-9.686-24.852-0.383-34.478l137.070-141.855c4.533-4.69 10.743-7.332 17.227-7.332s12.695 2.642 17.227 7.332l205.601 212.782c9.303 9.626 9.134 25.062-0.379 34.478z" />
<glyph unicode="&#xe92a;" glyph-name="outlined-purchase" d="M469.166 924.038h85.668c80.896 0 147.241-67.865 147.241-152.935v-64.277h-380.151v64.277c0 85.070 66.345 152.935 147.242 152.935zM750.264 706.826v64.277c0 110.962-86.907 201.697-195.43 201.697h-85.668c-108.525 0-195.43-90.735-195.43-201.697v-64.277h-147.242c-13.307 0-24.094-10.916-24.094-24.381v-709.264c0-13.466 10.787-24.381 24.094-24.381h771.011c13.307 0 24.095 10.916 24.095 24.381v709.264c0 13.465-10.788 24.381-24.095 24.381h-147.241zM702.075 658.064v-64.278c0-13.465 10.788-24.381 24.095-24.381s24.095 10.916 24.095 24.381v64.278h123.146v-394.528h-722.822v394.528h123.148v-64.278c0-13.465 10.787-24.381 24.094-24.381s24.094 10.916 24.094 24.381v64.278h380.151zM150.588 214.774h722.822v-217.211h-722.822v217.211z" />
<glyph unicode="&#xe92b;" glyph-name="outlined-shopping-cart" d="M0 948.419c0 13.465 10.916 24.381 24.381 24.381h132.982c12.423 0 22.859-9.341 24.231-21.688l17.55-157.888 803.085-86.561c6.446-0.695 12.344-3.926 16.404-8.979 4.055-5.053 5.934-11.514 5.217-17.954l-39.404-354.62c-1.372-12.349-11.807-21.688-24.233-21.688h-706.629l14.288-128.548h598.762c62.428 0 113.034-50.611 113.034-113.039s-50.606-113.034-113.034-113.034c-62.428 0-113.039 50.606-113.039 113.034 0 23.88 7.404 46.029 20.040 64.276h-434.588c12.637-18.248 20.040-40.397 20.040-64.276 0-62.428-50.608-113.034-113.036-113.034s-113.036 50.606-113.036 113.034c0 53.166 36.703 97.756 86.152 109.824l-83.628 752.38h-111.161c-13.465 0-24.381 10.916-24.381 24.381zM246.053 126.111c-35.497 0-64.273-28.774-64.273-64.276 0-35.497 28.776-64.271 64.273-64.271s64.274 28.774 64.274 64.271c0 35.502-28.776 64.276-64.274 64.276zM866.637 126.111c-35.497 0-64.276-28.774-64.276-64.276 0-35.497 28.78-64.271 64.276-64.271s64.271 28.774 64.271 64.271c0 35.502-28.774 64.276-64.271 64.276zM248.166 352.184h690.227l34.294 308.619-768.026 82.781 43.505-391.4z" />
<glyph unicode="&#xe92c;" glyph-name="outlined-credit-card" d="M0 748.8c0 66.51 52.305 121.6 118.691 121.6h786.617c66.386 0 118.692-55.090 118.692-121.6v-576c0-66.509-52.306-121.6-118.692-121.6h-786.617c-66.385 0-118.691 55.091-118.691 121.6v576zM118.691 819.2c-36.635 0-67.491-30.67-67.491-70.4v-576c0-39.731 30.856-70.4 67.491-70.4h786.617c36.634 0 67.492 30.669 67.492 70.4v576c0 39.73-30.858 70.4-67.492 70.4h-786.617zM972.8 691.2h-921.6v-204.8h921.6v204.8z" />
<glyph unicode="&#xe92d;" glyph-name="outlined-wallet" d="M598.789 919.126c11.955 5.815 26.409 1.039 32.456-10.727l25.728-50.044h212.618c48.988 0 89.395-38.629 89.395-87.411l-0.005-366.059c37.33-10.312 65.019-43.74 65.019-84.122v-63.232c0-40.387-27.689-73.81-65.019-84.122v-85.996c0-48.783-40.402-87.414-89.395-87.414h-780.189c-48.992 0-89.397 38.63-89.397 87.414v683.535c0 48.785 40.407 87.406 89.397 87.406h384.424l124.967 60.771zM489.518 812.131c0.468 0.21 0.929 0.434 1.382 0.672l107.807 52.425 21.371-41.571c0.143-0.3 0.297-0.595 0.456-0.888l46.72-90.877h-342.736l165.001 80.239zM374.386 809.999h-284.988c-22.962 0-40.635-17.858-40.635-39.051 0-21.196 17.676-39.056 40.635-39.056h124.372l160.617 78.107zM218.978 683.537h-129.581c-14.586 0-28.411 3.424-40.635 9.521v-605.644c0-21.197 17.676-39.060 40.635-39.060h780.189c22.958 0 40.637 17.864 40.637 39.060v82.703h-170.665c-48.993 0-89.4 38.63-89.4 87.414v63.232c0 48.783 40.407 87.409 89.4 87.409l170.665 0.005v236.305c0 21.195-17.679 39.055-40.637 39.055h-162.068c-0.302-0.006-0.599-0.006-0.901 0h-486.704c-0.312-0.006-0.623-0.006-0.934 0zM721.987 731.892h147.599c14.587 0 28.411-3.424 40.637-9.521v48.572c0 21.196-17.674 39.056-40.632 39.056h-187.761l40.156-78.107zM934.6 359.818h-195.041c-22.963 0-40.637-17.859-40.637-39.055v-63.232c0-21.197 17.674-39.060 40.637-39.060l195.041 0.005c22.963 0 40.637 17.859 40.637 39.055v63.232c0 21.197-17.674 39.055-40.637 39.055zM779.761 289.142c0 13.353 10.916 24.177 24.376 24.177h0.87c13.466 0 24.381-10.824 24.381-24.177s-10.916-24.177-24.381-24.177h-0.87c-13.46 0-24.376 10.824-24.376 24.177z" />
<glyph unicode="&#xe92e;" glyph-name="outlined-plane" d="M815.933 937.035c47.667 47.686 124.657 47.686 172.324 0 47.657-47.68 47.657-124.687 0-172.367l-219.971-220.068 124.954-500.466c2.074-8.305-0.358-17.091-6.41-23.142l-65.014-65.044c-5.166-5.171-12.375-7.747-19.645-7.030-7.27 0.722-13.834 4.659-17.884 10.737l-240.527 360.75-10.614-10.614c-27.817-27.832-77.88-76.401-136.838-121.759l42.075-210.063c1.435-7.163-0.418-14.592-5.049-20.244-4.631-5.647-11.551-8.924-18.857-8.924h-130.032c-10.495 0-19.813 6.717-23.131 16.676l-41.253 123.812c-21.738-6.426-43.8-10.399-65.648-10.399-13.466 0-24.381 10.916-24.381 24.381 0 21.74 3.696 43.802 10.229 65.746l-123.593 41.216c-9.954 3.318-16.668 12.636-16.668 23.127v130.089c0 7.306 3.277 14.228 8.928 18.862 5.651 4.628 13.082 6.482 20.245 5.043l209.953-42.086c45.337 58.977 93.882 109.061 121.697 136.888l10.631 10.636-360.607 240.647c-6.073 4.053-10.010 10.614-10.729 17.881s1.857 14.471 7.019 19.636l65.016 65.044c6.059 6.062 14.856 8.497 23.169 6.414l500.656-125.431 219.955 220.053zM953.769 902.563c-28.621 28.633-74.726 28.633-103.347 0l-229.724-229.825c-6.057-6.062-14.853-8.497-23.168-6.414l-500.656 125.431-34.238-34.254 360.607-240.647c6.073-4.053 10.010-10.615 10.729-17.881s-1.857-14.472-7.019-19.636l-31.641-31.656c-29.21-29.22-80.67-82.442-126.419-143.892-5.628-7.557-15.108-11.197-24.349-9.344l-195.781 39.25v-82.765l130.268-43.443c6.336-2.115 11.528-6.733 14.363-12.78s3.064-12.995 0.635-19.215c-6.13-15.703-10.461-30.879-12.9-45.404 14.513 2.519 29.798 6.927 45.774 12.923 6.202 2.324 13.083 2.028 19.062-0.824s10.539-8.013 12.633-14.3l43.423-130.324h82.708l-39.235 195.886c-1.85 9.236 1.785 18.708 9.338 24.335 61.422 45.773 114.616 97.254 143.826 126.474l31.642 31.657c5.166 5.166 12.375 7.747 19.64 7.025 7.27-0.717 13.834-4.659 17.889-10.737l240.527-360.75 34.237 34.253-124.959 500.467c-2.074 8.305 0.358 17.089 6.41 23.142l229.724 229.825c28.626 28.639 28.626 74.784 0 103.423z" />
<glyph unicode="&#xe92f;" glyph-name="outlined-plane-arrival" d="M504.65 978.579c8.149 4.544 17.964 4.686 25.839 0.375l128.026-70.064c6.784-3.715 11.341-10.309 12.375-17.928l45.235-332.020 181.294-99.218c81.736-44.733 112.783-144.297 64.241-224.22-7.516-12.37-23.639-16.911-36.014-10.143l-832.143 455.419c-12.374 6.772-16.311 22.292-8.795 34.665 18.248 30.042 24.968 41.442 29.552 63.341 5.106 24.388 7.187 60.49 11.534 138.89 0.498 8.979 5.792 17.256 13.943 21.8s17.963 4.686 25.84 0.375l128.023-70.064c5.674-3.106 9.83-8.249 11.626-14.392l24.926-85.217 145.784-79.785 14.771 266.385c0.498 8.979 5.792 17.257 13.944 21.8zM540.692 913.669l-14.771-266.385c-0.502-8.979-5.796-17.256-13.945-21.8-8.152-4.543-17.962-4.686-25.84-0.375l-192.033 105.096c-5.674 3.105-9.83 8.249-11.626 14.391l-24.926 85.217-81.803 44.769c-2.894-49.867-5.282-80.627-10.138-103.818-4.804-22.945-12.125-38.962-22.657-57.344l784.662-429.429c14.7 48.010-6.257 102.927-57.411 130.924l-192.036 105.097c-6.789 3.716-11.341 10.309-12.38 17.928l-45.235 332.020-79.862 43.709zM0-25.6c0 14.136 11.462 25.6 25.6 25.6h972.8c14.136 0 25.6-11.464 25.6-25.6s-11.464-25.6-25.6-25.6h-972.8c-14.138 0-25.6 11.464-25.6 25.6z" />
<glyph unicode="&#xe930;" glyph-name="outlined-plane-departure" d="M148.596 764.524c0.141 9.331 4.923 17.899 12.595 22.565l124.688 75.838c6.612 4.022 14.599 4.668 21.716 1.757l310.154-126.836 176.573 107.397c79.606 48.416 181.356 25.525 226.299-56.476 6.958-12.696 2.826-28.93-9.221-36.259l-810.477-492.952c-12.051-7.327-27.461-2.98-34.418 9.718-16.893 30.822-23.406 42.342-40.079 57.262-18.568 16.62-48.792 36.47-114.515 79.437-7.527 4.92-12.048 13.645-11.908 22.973 0.141 9.334 4.923 17.9 12.595 22.564l124.689 75.841c5.527 3.361 12.059 4.388 18.276 2.873l86.263-21.023 141.988 86.361-223.311 145.985c-7.527 4.921-12.048 13.644-11.908 22.975zM222.831 763.281l223.311-145.985c7.527-4.92 12.048-13.644 11.908-22.975s-4.923-17.899-12.595-22.565l-187.033-113.756c-5.527-3.364-12.059-4.388-18.277-2.872l-86.263 21.020-79.672-48.458c41.739-27.443 67.184-44.887 84.84-60.687 17.469-15.636 27.68-29.983 38.333-48.297l764.225 464.823c-34.227 36.74-92.262 46.049-142.090 15.743l-187.028-113.758c-6.615-4.022-14.602-4.668-21.719-1.757l-310.153 126.836-77.786-47.311zM0-25.6c0 14.136 11.462 25.6 25.6 25.6h972.8c14.136 0 25.6-11.464 25.6-25.6s-11.464-25.6-25.6-25.6h-972.8c-14.138 0-25.6 11.464-25.6 25.6z" />
<glyph unicode="&#xe931;" glyph-name="outlined-transfer" d="M263.704 961.238c4.444 7.187 12.292 11.562 20.743 11.562h130.031c7.676 0 14.905-3.614 19.51-9.754l187.729-250.309h182.851c85.427 0 154.419-69.001 154.419-154.413 0-22.54-4.731-44.052-13.588-63.544 48.722-51.030 78.602-120.216 78.602-196.519v-260.065c0-6.467-2.57-12.667-7.142-17.239s-10.778-7.142-17.244-7.142l-119.706 0.005c-20.439-38.666-61.061-65.019-107.848-65.019s-87.414 26.353-107.848 65.019h-304.421c-20.439-38.666-61.065-65.019-107.85-65.019s-87.411 26.353-107.849 65.019h-119.707c-13.468 0-24.386 10.916-24.386 24.381v520.123c0 13.465 10.918 24.381 24.386 24.381h40.426c-0.456 16.385-1.929 26.825-6.672 41.054-7.429 22.288-22.597 52.774-55.566 118.711-3.779 7.558-3.374 16.533 1.069 23.72s12.292 11.562 20.743 11.562h130.030c6.469 0 12.672-2.569 17.245-7.143l57.873-57.873h145.49l-112.39 224.781c-3.779 7.558-3.374 16.533 1.069 23.72zM113.614 582.705h625.939c62.28 0 119.818-19.903 166.605-53.71 2.652 9.262 4.055 19.087 4.055 29.33 0 58.49-47.165 105.651-105.646 105.651h-195.041c-7.68 0-14.909 3.614-19.512 9.755l-187.73 250.309h-78.383l112.389-224.78c3.779-7.558 3.375-16.533-1.069-23.72s-12.292-11.562-20.743-11.562h-195.046c-6.468 0-12.671 2.57-17.245 7.143l-57.872 57.873h-80.503c21.069-42.385 33.549-68.669 40.598-89.815 6.897-20.692 8.723-36.86 9.205-56.471zM895.862 474.841c-35.86 31.751-81.505 52.71-131.922 57.863v-169.43c0-22.513 18.125-40.632 40.627-40.632h169.426c-5.893 57.667-32.461 109.087-72.202 146.765-2.324 1.513-4.311 3.359-5.929 5.434zM975.227 273.879h-170.66c-49.444 0-89.4 39.962-89.4 89.395v170.669h-81.26v-170.669c0-49.434-39.951-89.395-89.4-89.395h-495.735v-211.297h81.528c-0.177 2.683-0.266 5.391-0.266 8.12 0 67.323 54.576 121.907 121.909 121.907s121.909-54.584 121.909-121.907c0-2.729-0.090-5.437-0.266-8.12h276.835c-0.179 2.683-0.266 5.391-0.266 8.12 0 67.323 54.574 121.907 121.907 121.907s121.907-54.584 121.907-121.907c0-2.729-0.087-5.437-0.266-8.12l81.526-0.005v211.302zM841.58 47.918c2.345 7.173 3.615 14.833 3.615 22.784 0 40.402-32.748 73.144-73.134 73.144s-73.139-32.742-73.139-73.144c0-7.946 1.27-15.596 3.61-22.758 0.461-1.050 0.85-2.145 1.157-3.267 10.491-27.546 37.151-47.114 68.372-47.114 31.232 0 57.897 19.579 68.383 47.14 0.302 1.106 0.686 2.181 1.137 3.215zM321.478 47.969c2.338 7.158 3.601 14.797 3.601 22.733 0 40.402-32.749 73.144-73.137 73.144s-73.137-32.742-73.137-73.144c0-7.951 1.269-15.611 3.617-22.779 0.453-1.039 0.835-2.115 1.141-3.226 10.485-27.556 37.149-47.135 68.38-47.135 31.215 0 57.867 19.558 68.363 47.094 0.312 1.142 0.705 2.248 1.172 3.313zM48.772 322.642h243.801v211.301h-243.801v-211.301zM341.344 533.943v-211.301h203.163c22.502 0 40.632 18.12 40.632 40.632v170.669h-243.795z" />
<glyph unicode="&#xe932;" glyph-name="outlined-taxi" d="M325.078 883.403c0 49.436 39.953 89.397 89.401 89.397h195.047c49.444 0 89.4-39.961 89.4-89.397v-41.829c65.475-6.525 113.326-39.070 128.486-79.677 0.102-0.271 0.2-0.543 0.292-0.817l59.453-178.376h79.949c31.242 0 56.893-25.657 56.893-56.889v-32.508c0-34.351-19.292-64.129-47.652-79.099 9.825-12.861 17.69-25.728 23.956-38.636 0.712-1.219 1.321-2.499 1.818-3.84 5.612-12.17 9.836-24.371 12.984-36.634 5.627-21.908 7.695-43.668 8.453-64.712 0.287-1.5 0.44-3.052 0.44-4.634v-28.964c0-0.753 0-1.51 0-2.263v-228.838c0-31.232-25.651-56.888-56.893-56.888h-130.033c-31.242 0-56.893 25.656-56.893 56.888v73.144h-536.363v-73.144c0-31.232-25.65-56.888-56.893-56.888h-130.031c-31.243 0-56.893 25.656-56.893 56.888v228.838c-0.002 31.672-0.003 65.935 8.893 100.572 3.050 11.873 7.109 23.695 12.458 35.482 0.733 2.499 1.855 4.833 3.296 6.927 6.106 12.257 13.668 24.484 23.003 36.7-28.361 14.971-47.651 44.749-47.651 79.099v32.508c0 31.231 25.65 56.889 56.893 56.889h79.948l59.458 178.376c0.091 0.274 0.187 0.546 0.289 0.817 15.16 40.608 63.016 73.153 128.49 79.677v41.829zM373.849 842.768h276.304v40.635c0 22.515-18.125 40.635-40.627 40.635h-195.047c-22.502 0-40.629-18.12-40.629-40.635v-40.635zM134.561 533.942h-77.667c-4.298 0-8.122-3.816-8.122-8.127v-32.508c0-22.515 18.127-40.633 40.629-40.633 13.468 0 24.386-10.916 24.386-24.381v-3.471c0-6.461-2.569-12.662-7.141-17.234-6.723-6.723-12.641-13.358-17.855-19.922l0.729-0.005c38.145-0.015 76.088-6.692 105.232-25.764 30.775-20.137 49.065-52.403 49.065-96.143 0-31.232-25.65-56.888-56.893-56.888h-138.152v-203.177c0-4.311 3.824-8.125 8.122-8.125h130.031c4.298 0 8.122 3.814 8.122 8.125v97.526c0 13.466 10.918 24.381 24.386 24.381h42.535c11.655 73.784 75.386 130.033 152.51 130.033h195.044c77.128 0 140.856-56.248 152.509-130.033h42.537c13.471 0 24.387-10.916 24.387-24.381v-97.526c0-4.311 3.825-8.125 8.12-8.125h130.033c4.301 0 8.12 3.814 8.12 8.125v203.177h-138.153c-31.242 0-56.893 25.656-56.893 56.888 0 43.74 18.294 76.006 49.065 96.143 29.179 19.092 67.169 25.759 105.354 25.759h0.614c-5.217 6.569-11.136 13.204-17.859 19.932-4.572 4.572-7.142 10.772-7.142 17.234v3.471c0 13.466 10.916 24.381 24.387 24.381 22.502 0 40.627 18.118 40.627 40.633v32.508c0 4.311-3.82 8.127-8.12 8.127h-77.665c-6.702-16.773-20.244-29.154-36.623-37.73-22.231-11.64-52.116-17.895-85.192-21.607-55.552-6.235-128.584-6.014-208.113-5.774-15.616 0.047-31.483 0.095-47.514 0.095s-31.898-0.048-47.512-0.095c-79.528-0.24-152.561-0.461-208.116 5.774-33.071 3.711-62.959 9.967-85.189 21.607-16.379 8.576-29.923 20.958-36.623 37.73zM844.948 555.107l-63.36 190.085c-7.557 19.522-41.405 48.815-107.049 48.815h-325.076c-65.646 0-99.495-29.293-107.052-48.815l-63.361-190.085c0.858-5.15 4.261-10.201 14.759-15.698 13.935-7.296 36.384-12.797 68.002-16.346 52.495-5.891 121.972-5.693 201.606-5.466 15.811 0.046 32.023 0.092 48.582 0.092s32.773-0.046 48.584-0.092c79.631-0.227 149.11-0.425 201.605 5.466 31.616 3.549 54.067 9.050 67.999 16.346 10.501 5.497 13.906 10.549 14.761 15.698zM962.949 338.898h-28.349c-33.766 0-60.79-6.118-78.643-17.802-16.251-10.634-27.003-27.131-27.003-55.342 0-4.311 3.825-8.125 8.12-8.125h138.015c-0.384 23.112-1.823 44.334-7.219 65.341-1.362 5.289-2.98 10.593-4.92 15.928zM712.356 127.596c-10.962 46.674-52.751 81.27-102.835 81.27h-195.044c-50.084 0-91.871-34.596-102.835-81.27h400.714zM48.911 257.628h138.013c4.298 0 8.122 3.814 8.122 8.125 0 28.211-10.75 44.708-27.003 55.342-17.853 11.684-44.876 17.802-78.642 17.802h-0.237l-28.011 0.271c-1.988-5.422-3.64-10.819-5.021-16.2-5.396-21.007-6.837-42.23-7.221-65.341z" />
<glyph unicode="&#xe933;" glyph-name="outlined-people" d="M512 870.4c-56.554 0-102.4-45.846-102.4-102.4s45.846-102.4 102.4-102.4c56.556 0 102.4 45.846 102.4 102.4s-45.844 102.4-102.4 102.4zM358.4 768c0 84.831 68.769 153.6 153.6 153.6 84.833 0 153.6-68.769 153.6-153.6s-68.767-153.6-153.6-153.6c-84.831 0-153.6 68.769-153.6 153.6zM204.8 512c-56.554 0-102.4-45.846-102.4-102.4 0-56.556 45.846-102.4 102.4-102.4s102.4 45.844 102.4 102.4c0 56.554-45.846 102.4-102.4 102.4zM51.2 409.6c0 84.831 68.769 153.6 153.6 153.6s153.6-68.769 153.6-153.6c0-84.833-68.769-153.6-153.6-153.6s-153.6 68.767-153.6 153.6zM819.2 512c-56.556 0-102.4-45.846-102.4-102.4 0-56.556 45.844-102.4 102.4-102.4s102.4 45.844 102.4 102.4c0 56.554-45.844 102.4-102.4 102.4zM665.6 409.6c0 84.831 68.767 153.6 153.6 153.6s153.6-68.769 153.6-153.6c0-84.833-68.767-153.6-153.6-153.6s-153.6 68.767-153.6 153.6zM364.845 591.028c37.175 49.090 89.475 74.572 147.155 74.572 57.682 0 109.983-25.482 147.154-74.572 36.751-48.528 57.646-118.523 57.646-207.028 0-14.136-11.464-25.6-25.6-25.6s-25.6 11.464-25.6 25.6c0 81.023-19.174 139.030-47.263 176.119-27.658 36.528-64.963 54.281-106.337 54.281-41.377 0-78.677-17.754-106.338-54.281-28.086-37.089-47.262-95.095-47.262-176.119 0-14.136-11.462-25.6-25.6-25.6s-25.6 11.464-25.6 25.6c0 88.505 20.896 158.5 57.645 207.028zM59.107 245.13c37.777 41.569 89.739 62.070 145.693 62.070s107.916-20.5 145.693-62.070c37.649-41.431 59.107-101.427 59.107-176.865v-42.665c0-14.136-11.462-25.6-25.6-25.6s-25.6 11.464-25.6 25.6v42.665c0 65.843-18.613 112.512-45.799 142.428-27.059 29.778-64.696 45.307-107.801 45.307s-80.742-15.529-107.801-45.307c-27.187-29.916-45.799-76.585-45.799-142.428v-42.665c0-14.136-11.462-25.6-25.6-25.6s-25.6 11.464-25.6 25.6v42.665c0 75.438 21.458 135.434 59.107 176.865zM673.505 245.13c37.78 41.569 89.743 62.070 145.695 62.070s107.914-20.5 145.695-62.070c37.647-41.431 59.105-101.427 59.105-176.865v-42.665c0-14.136-11.464-25.6-25.6-25.6s-25.6 11.464-25.6 25.6v42.665c0 65.843-18.611 112.512-45.798 142.428-27.059 29.778-64.696 45.307-107.802 45.307s-80.742-15.529-107.802-45.307c-27.187-29.916-45.798-76.585-45.798-142.428v-42.665c0-14.136-11.464-25.6-25.6-25.6s-25.6 11.464-25.6 25.6v42.665c0 75.438 21.458 135.434 59.105 176.865z" />
<glyph unicode="&#xe934;" glyph-name="filled-rounded-close" d="M512 102.4c-197.939 0-358.4 160.461-358.4 358.4s160.461 358.4 358.4 358.4c197.939 0 358.4-160.461 358.4-358.4s-160.461-358.4-358.4-358.4zM670.807 566.669c14.618 14.618 14.618 38.318 0 52.935s-38.318 14.618-52.936 0l-105.872-105.87-105.87 105.87c-14.618 14.618-38.318 14.618-52.935 0s-14.618-38.318 0-52.935l105.87-105.869-105.87-105.871c-14.618-14.618-14.618-38.318 0-52.936s38.318-14.618 52.935 0l105.87 105.871 105.872-105.871c14.618-14.618 38.318-14.618 52.936 0s14.618 38.318 0 52.936l-105.871 105.871 105.871 105.869z" />
<glyph unicode="&#xe935;" glyph-name="outlined-rounded-close1" d="M512 874.339c-228.391 0-413.539-185.148-413.539-413.539s185.148-413.539 413.539-413.539c228.39 0 413.539 185.149 413.539 413.539s-185.149 413.539-413.539 413.539zM64 460.8c0 247.424 200.576 448 448 448s448-200.576 448-448c0-247.424-200.576-448-448-448s-448 200.576-448 448zM361.971 610.829c6.726 6.73 17.638 6.73 24.368 0l125.661-125.661 125.661 125.661c6.73 6.73 17.642 6.73 24.368 0 6.73-6.726 6.73-17.638 0-24.368l-125.661-125.661 125.661-125.661c6.73-6.73 6.73-17.642 0-24.368-6.726-6.73-17.638-6.73-24.368 0l-125.661 125.661-125.661-125.661c-6.73-6.73-17.642-6.73-24.368 0-6.73 6.726-6.73 17.638 0 24.368l125.661 125.661-125.661 125.661c-6.73 6.73-6.73 17.642 0 24.368z" />
<glyph unicode="&#xe936;" glyph-name="filled-nothing1" d="M512 924.005c-255.856 0-463.238-207.4-463.238-463.205s207.382-463.206 463.238-463.206c255.857 0 463.237 207.401 463.237 463.206s-207.38 463.205-463.237 463.205zM0 460.8c0 282.786 229.246 512 512 512 282.752 0 512-229.214 512-512 0-282.788-229.248-512-512-512-282.754 0-512 229.212-512 512zM874.025 822.814c9.518-9.531 9.513-24.979-0.010-34.503l-689.56-689.541c-9.525-9.523-24.962-9.518-34.48 0.015-9.518 9.528-9.512 24.975 0.012 34.499l689.56 689.542c9.523 9.524 24.96 9.519 34.478-0.012z" />
<glyph unicode="&#xe937;" glyph-name="outlined-billet" d="M102.4 945.853c0 14.883 10.787 26.947 24.094 26.947h771.011c13.307 0 24.095-12.065 24.095-26.947v-970.106c0-14.884-10.788-26.947-24.095-26.947h-771.011c-13.307 0-24.094 12.063-24.094 26.947v970.106zM150.588 918.905v-916.212h722.822v916.212h-722.822zM204.8 385.971c0 13.051 10.58 23.629 23.631 23.629s23.631-10.578 23.631-23.629v-259.942c0-13.051-10.58-23.629-23.631-23.629s-23.631 10.578-23.631 23.629v259.942zM346.585 385.971c0 13.051 10.58 23.629 23.631 23.629s23.631-10.578 23.631-23.629v-157.542c0-13.051-10.58-23.629-23.631-23.629s-23.631 10.578-23.631 23.629v157.542zM346.585 129.971c0 13.051 10.58 23.629 23.631 23.629s23.631-10.578 23.631-23.629v-3.942c0-13.051-10.58-23.629-23.631-23.629s-23.631 10.578-23.631 23.629v3.942zM441.108 385.971c0 13.051 10.579 23.629 23.63 23.629s23.631-10.578 23.631-23.629v-157.542c0-13.051-10.58-23.629-23.631-23.629s-23.63 10.578-23.63 23.629v157.542zM441.108 129.971c0 13.051 10.579 23.629 23.63 23.629s23.631-10.578 23.631-23.629v-3.942c0-13.051-10.58-23.629-23.631-23.629s-23.63 10.578-23.63 23.629v3.942zM535.631 385.971c0 13.051 10.58 23.629 23.631 23.629s23.63-10.578 23.63-23.629v-157.542c0-13.051-10.579-23.629-23.63-23.629s-23.631 10.578-23.631 23.629v157.542zM535.631 129.971c0 13.051 10.58 23.629 23.631 23.629s23.63-10.578 23.63-23.629v-3.942c0-13.051-10.579-23.629-23.63-23.629s-23.631 10.578-23.631 23.629v3.942zM630.154 385.971c0 13.051 10.578 23.629 23.629 23.629s23.634-10.578 23.634-23.629v-157.542c0-13.051-10.583-23.629-23.634-23.629s-23.629 10.578-23.629 23.629v157.542zM630.154 129.971c0 13.051 10.578 23.629 23.629 23.629s23.634-10.578 23.634-23.629v-3.942c0-13.051-10.583-23.629-23.634-23.629s-23.629 10.578-23.629 23.629v3.942zM771.937 385.971c0 13.051 10.583 23.629 23.634 23.629s23.629-10.578 23.629-23.629v-259.942c0-13.051-10.578-23.629-23.629-23.629s-23.634 10.578-23.634 23.629v259.942zM484.694 747.669c-18.783 0-34.134-14.189-34.134-31.567s15.35-31.566 34.134-31.566h54.613c41.413 0 75.094-31.15 75.094-69.434s-33.68-69.434-75.094-69.434h-54.613c-41.413 0-75.094 31.15-75.094 69.434 0 10.457 9.169 18.933 20.48 18.933s20.48-8.477 20.48-18.933c0-17.378 15.35-31.567 34.134-31.567h54.613c18.783 0 34.134 14.189 34.134 31.567s-15.35 31.566-34.134 31.566h-54.613c-41.413 0-75.094 31.15-75.094 69.434s33.68 69.434 75.094 69.434h54.613c41.413 0 75.094-31.15 75.094-69.434 0-10.457-9.169-18.933-20.48-18.933s-20.48 8.477-20.48 18.933c0 17.378-15.35 31.567-34.134 31.567h-54.613zM511.88 819.2c11.311 0 20.48-8.477 20.48-18.934v-33.667c0-10.457-9.169-18.934-20.48-18.934s-20.48 8.477-20.48 18.934v33.667c0 10.457 9.169 18.934 20.48 18.934zM511.88 583.535c11.311 0 20.48-8.477 20.48-18.934v-33.667c0-10.457-9.169-18.934-20.48-18.934s-20.48 8.477-20.48 18.934v33.667c0 10.457 9.169 18.934 20.48 18.934z" />
<glyph unicode="&#xe938;" glyph-name="outlined-star" d="M489.228 958.398c9.66 19.202 35.884 19.202 45.545 0l144.445-287.125c3.727-7.405 10.516-12.579 18.381-14.006l305.019-55.348c20.398-3.701 28.503-29.856 14.075-45.425l-215.747-232.802c-5.56-6.006-8.156-14.377-7.020-22.661l44.063-321.331c2.944-21.494-18.268-37.658-36.844-28.078l-277.786 143.247c-7.163 3.697-15.558 3.697-22.722 0l-277.784-143.247c-18.577-9.58-39.792 6.584-36.845 28.078l44.063 321.331c1.136 8.284-1.457 16.655-7.022 22.661l-215.743 232.802c-14.428 15.569-6.325 41.724 14.073 45.425l305.017 55.348c7.866 1.427 14.657 6.601 18.382 14.006l144.447 287.125z" />
<glyph unicode="&#xe939;" glyph-name="outlined-payment" d="M102.4 948.419c0 13.465 10.787 24.381 24.094 24.381h771.011c13.307 0 24.095-10.916 24.095-24.381s-10.788-24.381-24.095-24.381h-45.998v-881.199c0-52.419-42.506-94.039-94.182-94.039h-490.65c-51.68 0-94.187 41.62-94.187 94.039v881.199h-45.994c-13.307 0-24.094 10.916-24.094 24.381zM220.677 924.038v-881.199c0-24.668 20.109-45.276 45.999-45.276h490.65c25.887 0 45.998 20.608 45.998 45.276v881.199h-582.646zM347.709 530.462c0 52.423 42.508 94.041 94.188 94.041 13.307 0 24.094-10.916 24.094-24.381s-10.787-24.381-24.094-24.381c-25.89 0-46-20.612-46-45.279v-34.318c0.004-0.169 0.005-0.339 0.005-0.51s-0.002-0.34-0.005-0.51v-34.321c0-24.665 20.109-45.278 46-45.278s46 20.613 46 45.278v69.66c0 52.423 42.509 94.041 94.19 94.041 51.676 0 94.188-41.617 94.188-94.041v-10.447h28.713c13.307 0 24.095-10.916 24.095-24.381s-10.788-24.381-24.095-24.381h-28.713v-10.451c0-52.425-42.511-94.041-94.188-94.041-13.307 0-24.095 10.916-24.095 24.381s10.788 24.381 24.095 24.381c25.887 0 45.998 20.613 45.998 45.278v69.66c0 24.667-20.111 45.279-45.998 45.279-25.892 0-46.003-20.612-46.003-45.279v-69.66c0-52.425-42.506-94.041-94.187-94.041s-94.188 41.615-94.188 94.041v10.451h-28.232c-13.307 0-24.094 10.916-24.094 24.381s10.787 24.381 24.094 24.381h28.232v10.447z" />
<glyph unicode="&#xe93a;" glyph-name="outlined-financial" d="M0 460.801c0 282.631 229.369 511.999 512 511.999 0.072 0 0.143 0 0.215-0.001 0.072 0.001 0.143 0.001 0.215 0.001 141.117 0 269.041-57.389 361.825-150.175l22.554-22.551v100.051c0 14.108 11.438 25.544 25.544 25.544s25.544-11.437 25.544-25.544v-161.72c0-6.775-2.693-13.272-7.48-18.062-4.792-4.791-11.29-7.482-18.063-7.482l-162.15 0.002c-14.111 0-25.544 11.437-25.544 25.544s11.433 25.544 25.544 25.544l100.48-0.001-22.548 22.551c-83.635 83.634-198.728 135.211-325.704 135.211-0.072 0-0.143 0-0.215 0.001-0.072-0.001-0.143-0.001-0.215-0.001-254.416 0-460.911-206.495-460.911-460.91 0-14.107-11.437-25.545-25.544-25.545s-25.544 11.438-25.544 25.545zM512 745.788c14.106 0 25.544-11.437 25.544-25.544v-39.316h23.316c67.727 0 122.839-55.109 122.839-122.835 0-14.108-11.438-25.544-25.549-25.544-14.106 0-25.544 11.437-25.544 25.544 0 39.51-32.236 71.747-71.747 71.747h-97.29c-39.511 0-71.747-32.237-71.747-71.747s32.236-71.747 71.747-71.747h97.29c67.727 0 122.839-55.109 122.839-122.836s-55.112-122.834-122.839-122.834h-23.316v-39.316c0-14.111-11.438-25.544-25.544-25.544-14.108 0-25.544 11.433-25.544 25.544v39.316h-22.885c-67.726 0-122.836 55.107-122.836 122.834 0 14.111 11.437 25.544 25.545 25.544s25.544-11.433 25.544-25.544c0-39.511 32.236-71.747 71.747-71.747h97.29c39.511 0 71.747 32.236 71.747 71.747s-32.236 71.747-71.747 71.747h-97.29c-67.726 0-122.836 55.11-122.836 122.836s55.11 122.835 122.836 122.835h22.885v39.316c0 14.108 11.437 25.544 25.544 25.544zM998.456 486.345c14.106 0 25.544-11.437 25.544-25.544 0-282.63-229.371-511.996-512-511.996-0.019 0-0.038 0-0.057 0-0.125-0.005-0.25-0.005-0.375-0.005-141.117 0-269.038 57.39-361.825 150.175l-22.551 22.554v-100.485c0-14.106-11.437-25.544-25.544-25.544s-25.544 11.438-25.544 25.544v162.15c0 14.111 11.437 25.544 25.544 25.544h162.152c14.108 0 25.545-11.433 25.545-25.544 0-14.106-11.437-25.544-25.545-25.544h-100.483l22.551-22.548c83.635-83.635 198.726-135.214 325.7-135.214 0.019 0 0.039 0 0.058 0 0.125 0.005 0.25 0.005 0.375 0.005 254.418 0 460.913 206.495 460.913 460.909 0 14.108 11.433 25.544 25.544 25.544z" />
<glyph unicode="&#xe93b;" glyph-name="outlined-block" d="M512 924.005c-255.856 0-463.238-207.4-463.238-463.205s207.382-463.206 463.238-463.206c255.857 0 463.237 207.401 463.237 463.206s-207.38 463.205-463.237 463.205zM0 460.8c0 282.786 229.246 512 512 512 282.752 0 512-229.214 512-512 0-282.788-229.248-512-512-512-282.754 0-512 229.212-512 512zM874.025 822.814c9.518-9.531 9.513-24.979-0.010-34.503l-689.56-689.541c-9.525-9.523-24.962-9.518-34.48 0.015-9.518 9.528-9.512 24.975 0.012 34.499l689.56 689.542c9.523 9.524 24.96 9.519 34.478-0.012z" />
<glyph unicode="&#xe93c;" glyph-name="outlined-clock" d="M512 924.048c-255.835 0-463.238-207.398-463.238-463.248 0-255.852 207.403-463.247 463.238-463.247s463.237 207.396 463.237 463.247c0 255.849-207.401 463.248-463.237 463.248zM0 460.8c0 282.765 229.225 512 512 512 282.772 0 512-229.235 512-512 0-282.767-229.228-512-512-512-282.775 0-512 229.233-512 512zM511.998 810.253c13.467 0 24.383-10.914 24.383-24.376v-300.706h235.684c13.466 0 24.381-10.914 24.381-24.376 0-13.46-10.916-24.376-24.381-24.376h-260.067c-13.465 0-24.381 10.916-24.381 24.376v325.082c0 13.463 10.916 24.376 24.381 24.376z" />
<glyph unicode="&#xe93d;" glyph-name="outlined-reload" d="M923.274 940.29c13.466 0 24.381-10.923 24.381-24.398v-177.31c0-13.475-10.916-24.398-24.381-24.398-1.679 0-3.318 0.17-4.9 0.493h-172.416c-13.466 0-24.381 10.923-24.381 24.398s10.916 24.397 24.381 24.397h152.934v152.419c0 13.474 10.916 24.398 24.381 24.398zM0 460.8c0 282.904 229.129 512 512 512 141.184 0 269.466-57.424 362.015-149.973l66.493-66.491c9.523-9.525 9.528-24.972 0.010-34.504s-24.955-9.537-34.478-0.012l-66.493 66.491c-83.779 83.777-199.803 135.693-327.547 135.693-255.973 0-463.238-207.283-463.238-463.205 0-102.968 33.688-198.395 90.294-275.113 84.236-114.186 219.91-188.093 372.944-188.093 255.974 0 463.237 207.283 463.237 463.206 0 13.474 10.916 24.397 24.381 24.397s24.381-10.923 24.381-24.397c0-282.906-229.13-512-512-512-169.090 0-319.092 81.731-412.173 207.903-62.589 84.828-99.827 190.351-99.827 304.097z" />
<glyph unicode="&#xe93e;" glyph-name="outlined-info" d="M512 924.038c-255.83 0-463.228-207.394-463.228-463.238 0-255.846 207.399-463.237 463.228-463.237 255.831 0 463.227 207.391 463.227 463.237 0 255.844-207.396 463.238-463.227 463.238zM0 460.8c0 282.765 229.225 512 512 512 282.772 0 512-229.235 512-512 0-282.767-229.228-512-512-512-282.775 0-512 229.233-512 512zM487.617 688.355c0 13.465 10.918 24.381 24.383 24.381h0.461c13.471 0 24.387-10.916 24.387-24.381s-10.916-24.381-24.387-24.381h-0.461c-13.466 0-24.383 10.916-24.383 24.381zM422.6 558.319c0 13.466 10.918 24.381 24.386 24.381h65.014c13.466 0 24.387-10.915 24.387-24.381v-300.696h40.627c13.471 0 24.387-10.911 24.387-24.376s-10.916-24.381-24.387-24.381h-64.476c-0.179-0.005-0.358-0.005-0.538-0.005s-0.358 0-0.536 0.005h-64.478c-13.468 0-24.386 10.916-24.386 24.381s10.918 24.376 24.386 24.376h40.628v276.315h-40.628c-13.468 0-24.386 10.916-24.386 24.381z" />
<glyph unicode="&#xe93f;" glyph-name="outlined-login" d="M485.899 924.038c-33.303 0-61.574-28.461-61.574-64.277 0-13.465-10.787-24.381-24.094-24.381s-24.094 10.916-24.094 24.381c0 61.708 48.83 113.039 109.762 113.039h428.339c60.933 0 109.763-51.331 109.763-113.039v-797.922c0-61.706-48.829-113.039-109.763-113.039h-428.339c-60.932 0-109.762 51.333-109.762 113.039 0 13.466 10.787 24.381 24.094 24.381s24.094-10.916 24.094-24.381c0-35.814 28.271-64.276 61.574-64.276h428.339c33.306 0 61.573 28.462 61.573 64.276v797.922c0 35.816-28.268 64.277-61.573 64.277h-428.339zM469.054 655.542c9.514 9.414 24.769 9.24 34.072-0.388l171.337-177.315c9.155-9.475 9.155-24.617 0-34.089l-171.337-177.316c-9.303-9.631-24.558-9.805-34.072-0.389s-9.686 24.852-0.382 34.478l131.305 135.89h-575.883c-13.307 0-24.094 10.916-24.094 24.381 0 13.467 10.787 24.382 24.094 24.382l575.883-0.002-131.305 135.889c-9.303 9.628-9.132 25.064 0.382 34.478z" />
<glyph unicode="&#xe940;" glyph-name="outlined-logout" d="M109.763 924.038c-33.304 0-61.574-28.461-61.574-64.277v-797.922c0-35.814 28.271-64.276 61.574-64.276h428.344c33.3 0 61.573 28.462 61.573 64.276 0 13.466 10.788 24.381 24.095 24.381s24.095-10.916 24.095-24.381c0-61.706-48.835-113.039-109.763-113.039h-428.344c-60.932 0-109.763 51.333-109.763 113.039v797.922c0 61.708 48.831 113.039 109.763 113.039h428.344c60.928 0 109.763-51.331 109.763-113.039 0-13.465-10.788-24.381-24.095-24.381s-24.095 10.916-24.095 24.381c0 35.816-28.273 64.277-61.573 64.277h-428.344zM811.725 655.542c9.513 9.414 24.771 9.24 34.074-0.388l171.336-177.315c9.155-9.475 9.155-24.617 0-34.089l-171.336-177.316c-9.303-9.631-24.561-9.805-34.074-0.389s-9.687 24.852-0.384 34.478l131.308 135.89h-575.884c-13.307 0-24.094 10.916-24.094 24.381s10.787 24.38 24.094 24.38h575.884l-131.308 135.889c-9.303 9.628-9.129 25.064 0.384 34.478z" />
</font>
</defs>
</svg>
